<svg width="49" height="48" viewBox="0 0 49 48" fill="none" xmlns="http://www.w3.org/2000/svg">
<path d="M14.0668 36H8.9668C6.1068 36 4.66675 34.56 4.66675 31.7V8.30005C4.66675 5.44005 6.1068 4 8.9668 4H17.5668C20.4268 4 21.8667 5.44005 21.8667 8.30005V12" stroke="#273766" stroke-width="3" stroke-miterlimit="10" stroke-linecap="round" stroke-linejoin="round"/>
<path d="M35.4069 16.84V39.16C35.4069 42.38 33.8069 44 30.5869 44H18.9069C15.6869 44 14.0669 42.38 14.0669 39.16V16.84C14.0669 13.62 15.6869 12 18.9069 12H30.5869C33.8069 12 35.4069 13.62 35.4069 16.84Z" stroke="#273766" stroke-width="3" stroke-miterlimit="10" stroke-linecap="round" stroke-linejoin="round"/>
<path d="M27.4668 12V8.30005C27.4668 5.44005 28.9067 4 31.7667 4H40.3667C43.2267 4 44.6667 5.44005 44.6667 8.30005V31.7C44.6667 34.56 43.2267 36 40.3667 36H35.4067" stroke="#273766" stroke-width="3" stroke-miterlimit="10" stroke-linecap="round" stroke-linejoin="round"/>
<path d="M20.6667 22H28.6667" stroke="#273766" stroke-width="1.5" stroke-miterlimit="10" stroke-linecap="round" stroke-linejoin="round"/>
<path d="M20.6667 28H28.6667" stroke="#273766" stroke-width="1.5" stroke-miterlimit="10" stroke-linecap="round" stroke-linejoin="round"/>
<path d="M24.6667 44V38" stroke="#273766" stroke-width="1.5" stroke-miterlimit="10" stroke-linecap="round" stroke-linejoin="round"/>
</svg>
