<svg width="40" height="40" viewBox="0 0 40 40" fill="none" xmlns="http://www.w3.org/2000/svg">
<path d="M0 20C0 8.9543 8.9543 0 20 0C31.0457 0 40 8.9543 40 20C40 31.0457 31.0457 40 20 40C8.9543 40 0 31.0457 0 20Z" fill="black"/>
<path d="M28.1437 24.5861C27.8385 25.2848 27.4772 25.928 27.0586 26.5193C26.4881 27.3255 26.0209 27.8835 25.6609 28.1934C25.1027 28.702 24.5048 28.9625 23.8644 28.9773C23.4047 28.9773 22.8504 28.8477 22.205 28.5847C21.5576 28.323 20.9626 28.1934 20.4186 28.1934C19.848 28.1934 19.2361 28.323 18.5815 28.5847C17.926 28.8477 17.3979 28.9847 16.9942 28.9983C16.3801 29.0242 15.7681 28.7563 15.1571 28.1934C14.7672 27.8563 14.2795 27.2786 13.6952 26.4601C13.0683 25.586 12.5529 24.5725 12.1492 23.417C11.7168 22.1689 11.5 20.9603 11.5 19.7902C11.5 18.4498 11.7923 17.2938 12.3777 16.3251C12.8377 15.547 13.4498 14.9332 14.2158 14.4826C14.9818 14.0319 15.8095 13.8023 16.7009 13.7876C17.1886 13.7876 17.8282 13.9371 18.623 14.231C19.4156 14.5258 19.9245 14.6753 20.1476 14.6753C20.3144 14.6753 20.8798 14.5005 21.8382 14.1519C22.7445 13.8287 23.5094 13.6949 24.136 13.7476C25.834 13.8834 27.1097 14.5467 27.9581 15.7418C26.4395 16.6536 25.6883 17.9307 25.7032 19.5691C25.7169 20.8452 26.1841 21.9071 27.1022 22.7503C27.5183 23.1417 27.983 23.4441 28.5 23.6589C28.3879 23.9812 28.2695 24.2898 28.1437 24.5861ZM24.2494 9.40011C24.2494 10.4003 23.8806 11.3343 23.1456 12.1987C22.2586 13.2263 21.1857 13.8201 20.0223 13.7264C20.0075 13.6064 19.9989 13.4801 19.9989 13.3474C19.9989 12.3872 20.4207 11.3596 21.1698 10.5193C21.5438 10.0939 22.0194 9.74019 22.5962 9.45801C23.1718 9.18005 23.7162 9.02632 24.2282 9C24.2431 9.13371 24.2494 9.26744 24.2494 9.4001V9.40011Z" fill="white"/>
</svg>
