<svg width="57" height="57" viewBox="0 0 57 57" fill="none" xmlns="http://www.w3.org/2000/svg">
<g clip-path="url(#clip0_768_8407)">
<path d="M13.7653 5.00996C16.239 4.56464 18.8203 4.7873 21.1865 5.5666L26.4567 14.1389L18.3901 22.5998C18.175 22.7111 18.175 22.9338 18.175 23.2678C18.175 23.4904 18.2825 23.7131 18.3901 23.8244L30.4362 35.4025C30.7588 35.7363 31.2966 35.7363 31.6193 35.5139C31.9419 35.1799 32.0495 34.7346 31.7268 34.2893L25.2736 23.3791L35.061 14.9182C35.2761 14.6955 35.3837 14.3615 35.2761 14.0275L32.8024 6.90253C35.9213 5.12128 39.5785 4.34199 43.1276 5.00996C50.5487 6.23457 56.0341 12.9143 56.0341 20.7072V21.2639C56.0341 25.9396 54.0981 30.3928 50.8715 33.51L31.4042 52.3244C30.6513 53.1035 29.5757 53.4377 28.5002 53.4377C27.3171 53.4377 26.2416 53.1035 25.4887 52.3244L6.02136 33.51C2.79473 30.3928 0.966309 25.9396 0.966309 21.2639V20.7072C0.966309 12.9143 6.34402 6.23457 13.7653 5.00996Z" fill="#273766"/>
</g>
<defs>
<clipPath id="clip0_768_8407">
<rect width="55.0678" height="57" fill="white" transform="translate(0.966309)"/>
</clipPath>
</defs>
</svg>
