<svg width="25" height="36" viewBox="0 0 25 36" fill="none" xmlns="http://www.w3.org/2000/svg">
<path fill-rule="evenodd" clip-rule="evenodd" d="M22.2534 4.71243C22.1781 4.04046 21.668 3.51258 21.0248 3.44095L20.677 2.0199C20.5308 1.42156 19.897 1 19.1397 1H5.61866C4.86135 1 4.22756 1.42156 4.0813 2.0199L3.73352 3.44095C3.09033 3.51258 2.58025 4.04046 2.50493 4.71243L2.45721 5.03134C2.31115 5.15181 2.18542 5.35598 2.09344 5.61589C1.6583 5.85308 1.35286 6.30092 1.28934 6.82361L1.16908 7.62933C1.15404 7.72816 1.18139 7.8289 1.24384 7.90471C1.3056 7.98022 1.39585 8.0237 1.49086 8.02369H2.19616L2.77795 13.2388H2.1279C2.03619 13.239 1.94884 13.2797 1.88739 13.351C1.82535 13.4232 1.79578 13.5197 1.80613 13.6161L3.19398 26.6266C3.21382 26.7983 3.35369 26.927 3.51901 26.9258H4.32182L5.19288 34.6974C5.21118 34.8704 5.35148 35.001 5.5179 35H19.2664C19.4328 35.001 19.5731 34.8704 19.5914 34.6974L20.4625 26.9258H21.1548C21.3201 26.927 21.46 26.7983 21.4798 26.6266L22.9489 13.6161C22.9602 13.5202 22.9318 13.4237 22.8709 13.351C22.8087 13.2789 22.72 13.238 22.6272 13.2388H21.9771L22.5589 8.03049H23.2675C23.3625 8.0305 23.4527 7.98702 23.5145 7.9115C23.5769 7.8357 23.6043 7.73496 23.5892 7.63613L23.469 6.83041C23.4074 6.30526 23.1017 5.85461 22.665 5.61615C22.573 5.35611 22.4472 5.15185 22.3011 5.03134L22.2534 4.71243ZM22.3011 5.03134C22.2251 4.96862 22.1435 4.92859 22.0584 4.91519H2.69995C2.61479 4.92859 2.53324 4.96862 2.45721 5.03134L2.38792 5.49435C2.28461 5.52444 2.18608 5.56539 2.09344 5.61589C2.00334 5.87048 1.94562 6.17856 1.93289 6.51383L1.87114 7.34376H22.8872L22.8254 6.51383C22.8127 6.17867 22.755 5.87069 22.665 5.61615C22.5723 5.56556 22.4738 5.52452 22.3704 5.49435L22.3011 5.03134ZM4.70859 1.71091C4.7801 1.31402 5.17988 1.00218 5.61866 1.00218H19.1396C19.5784 1.00218 19.9782 1.31402 20.0497 1.71091L20.352 3.43076H4.40632L4.70859 1.71091ZM5.79417 34.3167H18.9641L19.7929 26.919H4.96536L5.79417 34.3167ZM21.3271 13.2388H3.43125L2.84946 8.02369H21.9089L21.3271 13.2388Z" fill="#273766"/>
<path d="M21.0248 3.44095L20.5391 3.55981L20.6222 3.89921L20.9694 3.93788L21.0248 3.44095ZM22.2534 4.71243L21.7565 4.76812L21.7575 4.7773L21.7589 4.78643L22.2534 4.71243ZM20.677 2.0199L20.1913 2.13862L20.1913 2.13875L20.677 2.0199ZM4.0813 2.0199L4.56696 2.13875L4.567 2.13862L4.0813 2.0199ZM3.73352 3.44095L3.78886 3.93788L4.13613 3.89921L4.21919 3.55981L3.73352 3.44095ZM2.50493 4.71243L2.99943 4.78642L3.00079 4.7773L3.00182 4.76812L2.50493 4.71243ZM1.28934 6.82361L1.78405 6.89745L1.78569 6.88393L1.28934 6.82361ZM1.16908 7.62933L1.66339 7.70458L1.66361 7.70314L1.16908 7.62933ZM1.24384 7.90471L1.6309 7.58819L1.62975 7.58679L1.24384 7.90471ZM1.49086 8.02369V7.52369H1.49082L1.49086 8.02369ZM2.19616 8.02369L2.69308 7.96826L2.64348 7.52369H2.19616V8.02369ZM2.77795 13.2388V13.7388H3.33683L3.27487 13.1833L2.77795 13.2388ZM2.1279 13.2388V12.7388L2.12667 12.7388L2.1279 13.2388ZM1.88739 13.351L1.50883 13.0243L1.50815 13.0251L1.88739 13.351ZM1.80613 13.6161L2.30331 13.5631L2.30328 13.5628L1.80613 13.6161ZM3.19398 26.6266L2.69678 26.6797L2.69729 26.684L3.19398 26.6266ZM3.51901 26.9258V26.4258L3.51523 26.4258L3.51901 26.9258ZM4.32182 26.9258L4.8187 26.8701L4.7689 26.4258H4.32182V26.9258ZM5.19288 34.6974L5.69011 34.6448L5.68977 34.6417L5.19288 34.6974ZM5.5179 35V34.5L5.51473 34.5L5.5179 35ZM19.2664 35L19.2696 34.5H19.2664V35ZM19.5914 34.6974L19.0945 34.6417L19.0942 34.6448L19.5914 34.6974ZM20.4625 26.9258V26.4258H20.0154L19.9656 26.8701L20.4625 26.9258ZM21.1548 26.9258L21.1586 26.4258H21.1548V26.9258ZM21.4798 26.6266L21.9765 26.684L21.9767 26.6827L21.4798 26.6266ZM22.9489 13.6161L22.4523 13.558L22.4521 13.56L22.9489 13.6161ZM22.8709 13.351L23.2545 13.0301L23.2495 13.0243L22.8709 13.351ZM22.6272 13.2388V13.7388L22.6311 13.7388L22.6272 13.2388ZM21.9771 13.2388L21.4802 13.1833L21.4181 13.7388H21.9771V13.2388ZM22.5589 8.03049V7.53049H22.1116L22.062 7.97499L22.5589 8.03049ZM23.2675 8.03049L23.2675 7.53049H23.2675V8.03049ZM23.5145 7.9115L23.1285 7.59359L23.1274 7.59498L23.5145 7.9115ZM23.5892 7.63613L23.0947 7.70994L23.0949 7.71137L23.5892 7.63613ZM23.469 6.83041L22.9724 6.8886L22.9733 6.89643L22.9744 6.90422L23.469 6.83041ZM22.0584 4.91519L22.1361 4.42127L22.0975 4.41519H22.0584V4.91519ZM2.69995 4.91519V4.41519H2.66084L2.62221 4.42127L2.69995 4.91519ZM2.38792 5.49435L2.52774 5.9744L2.83505 5.8849L2.88242 5.56835L2.38792 5.49435ZM1.93289 6.51383L2.43151 6.55093L2.43219 6.54187L2.43253 6.5328L1.93289 6.51383ZM1.87114 7.34376L1.37251 7.30666L1.33255 7.84376H1.87114V7.34376ZM22.8872 7.34376V7.84376H23.4258L23.3858 7.30666L22.8872 7.34376ZM22.8254 6.51383L22.3258 6.5328L22.3261 6.54188L22.3268 6.55093L22.8254 6.51383ZM22.3704 5.49435L21.8759 5.56835L21.9232 5.88469L22.2303 5.97432L22.3704 5.49435ZM4.70859 1.71091L4.21651 1.62226L4.21614 1.62436L4.70859 1.71091ZM20.0497 1.71091L20.5422 1.62436L20.5418 1.62226L20.0497 1.71091ZM20.352 3.43076V3.93076H20.9475L20.8444 3.3442L20.352 3.43076ZM4.40632 3.43076L3.91387 3.3442L3.81078 3.93076H4.40632V3.43076ZM18.9641 34.3167V34.8167H19.4112L19.461 34.3723L18.9641 34.3167ZM5.79417 34.3167L5.29728 34.3723L5.34706 34.8167H5.79417V34.3167ZM19.7929 26.919L20.2898 26.9747L20.3521 26.419H19.7929V26.919ZM4.96536 26.919V26.419H4.40622L4.46847 26.9747L4.96536 26.919ZM3.43125 13.2388L2.93433 13.2942L2.98393 13.7388H3.43125V13.2388ZM21.3271 13.2388V13.7388H21.7744L21.824 13.2942L21.3271 13.2388ZM2.84946 8.02369V7.52369H2.29058L2.35254 8.07913L2.84946 8.02369ZM21.9089 8.02369L22.4058 8.07913L22.4677 7.52369H21.9089V8.02369ZM20.9694 3.93788C21.3658 3.98202 21.7055 4.31332 21.7565 4.76812L22.7503 4.65673C22.6506 3.76761 21.9702 3.04315 21.0801 2.94403L20.9694 3.93788ZM20.1913 2.13875L20.5391 3.55981L21.5105 3.3221L21.1627 1.90104L20.1913 2.13875ZM19.1397 1.5C19.7372 1.5 20.1149 1.82613 20.1913 2.13862L21.1627 1.90117C20.9466 1.01699 20.0567 0.5 19.1397 0.5V1.5ZM5.61866 1.5H19.1397V0.5H5.61866V1.5ZM4.567 2.13862C4.64338 1.82613 5.02111 1.5 5.61866 1.5V0.5C4.7016 0.5 3.81173 1.01699 3.5956 1.90117L4.567 2.13862ZM4.21919 3.55981L4.56696 2.13875L3.59563 1.90104L3.24785 3.3221L4.21919 3.55981ZM3.00182 4.76812C3.0528 4.31332 3.39255 3.98202 3.78886 3.93788L3.67818 2.94403C2.78811 3.04315 2.10771 3.76761 2.00804 4.65673L3.00182 4.76812ZM2.9517 5.10533L2.99943 4.78642L2.01044 4.63843L1.96272 4.95734L2.9517 5.10533ZM2.56479 5.7827C2.64051 5.56876 2.72579 5.45794 2.77536 5.41706L2.13906 4.64561C1.89651 4.84567 1.73033 5.1432 1.62209 5.44908L2.56479 5.7827ZM1.78569 6.88393C1.83026 6.51717 2.04328 6.21269 2.33274 6.0549L1.85413 5.17688C1.27332 5.49348 0.87546 6.08467 0.792995 6.7633L1.78569 6.88393ZM1.66361 7.70314L1.78387 6.89742L0.794821 6.7498L0.674562 7.55552L1.66361 7.70314ZM1.62975 7.58679C1.65948 7.62288 1.6693 7.66575 1.66339 7.70458L0.674778 7.55409C0.638782 7.79057 0.703294 8.03491 0.857925 8.22262L1.62975 7.58679ZM1.49082 7.52369C1.55043 7.52369 1.60063 7.55117 1.6309 7.58819L0.856778 8.22122C1.01056 8.40927 1.24126 8.52371 1.49089 8.52369L1.49082 7.52369ZM2.19616 7.52369H1.49086V8.52369H2.19616V7.52369ZM3.27487 13.1833L2.69308 7.96826L1.69924 8.07913L2.28103 13.2942L3.27487 13.1833ZM2.1279 13.7388H2.77795V12.7388H2.1279V13.7388ZM2.26594 13.6776C2.23548 13.7129 2.18658 13.7386 2.12914 13.7388L2.12667 12.7388C1.8858 12.7394 1.6622 12.8466 1.50883 13.0243L2.26594 13.6776ZM2.30328 13.5628C2.30733 13.6006 2.29649 13.642 2.26662 13.6768L1.50815 13.0251C1.3542 13.2043 1.28422 13.4387 1.30899 13.6695L2.30328 13.5628ZM3.69116 26.5736L2.30331 13.5631L1.30895 13.6692L2.6968 26.6797L3.69116 26.5736ZM3.51523 26.4258C3.62292 26.425 3.68327 26.5051 3.69068 26.5692L2.69729 26.684C2.74436 27.0915 3.08447 27.4291 3.52278 27.4258L3.51523 26.4258ZM4.32182 26.4258H3.51901V27.4258H4.32182V26.4258ZM5.68977 34.6417L4.8187 26.8701L3.82493 26.9815L4.69599 34.7531L5.68977 34.6417ZM5.51473 34.5C5.62318 34.4993 5.6833 34.5804 5.6901 34.6448L4.69565 34.75C4.73907 35.1604 5.07978 35.5028 5.52108 35.5L5.51473 34.5ZM19.2664 34.5H5.5179V35.5H19.2664V34.5ZM19.0942 34.6448C19.101 34.5804 19.1611 34.4993 19.2696 34.5L19.2632 35.5C19.7045 35.5028 20.0452 35.1604 20.0887 34.75L19.0942 34.6448ZM19.9656 26.8701L19.0945 34.6417L20.0883 34.7531L20.9594 26.9815L19.9656 26.8701ZM21.1548 26.4258H20.4625V27.4258H21.1548V26.4258ZM20.9831 26.5692C20.9905 26.5051 21.0509 26.425 21.1586 26.4258L21.151 27.4258C21.5893 27.4291 21.9294 27.0915 21.9765 26.684L20.9831 26.5692ZM22.4521 13.56L20.983 26.5705L21.9767 26.6827L23.4458 13.6722L22.4521 13.56ZM22.4874 13.6718C22.4583 13.6369 22.4479 13.5957 22.4523 13.558L23.4455 13.6743C23.4724 13.4447 23.4053 13.2105 23.2544 13.0302L22.4874 13.6718ZM22.6311 13.7388C22.5729 13.7392 22.5232 13.7133 22.4924 13.6776L23.2495 13.0243C23.0942 12.8444 22.8671 12.7368 22.6232 12.7388L22.6311 13.7388ZM21.9771 13.7388H22.6272V12.7388H21.9771V13.7388ZM22.062 7.97499L21.4802 13.1833L22.474 13.2943L23.0558 8.086L22.062 7.97499ZM23.2675 7.53049H22.5589V8.53049H23.2675V7.53049ZM23.1274 7.59498C23.1577 7.55797 23.2079 7.53049 23.2675 7.53049L23.2674 8.53049C23.517 8.53051 23.7478 8.41607 23.9015 8.22802L23.1274 7.59498ZM23.0949 7.71137C23.089 7.67254 23.0988 7.62968 23.1286 7.59359L23.9004 8.22942C24.055 8.04171 24.1195 7.79737 24.0835 7.5609L23.0949 7.71137ZM22.9744 6.90422L23.0947 7.70994L24.0837 7.56232L23.9635 6.7566L22.9744 6.90422ZM22.4253 6.055C22.7159 6.21363 22.9292 6.52007 22.9724 6.8886L23.9656 6.77222C23.8857 6.09046 23.4875 5.49558 22.9046 5.17731L22.4253 6.055ZM21.983 5.41706C22.0325 5.45796 22.1179 5.56883 22.1936 5.7829L23.1363 5.4494C23.0281 5.1434 22.8619 4.84573 22.6192 4.64561L21.983 5.41706ZM21.7589 4.78643L21.8066 5.10534L22.7956 4.95734L22.7479 4.63843L21.7589 4.78643ZM21.9806 5.40911C21.9762 5.40841 21.9726 5.40749 21.97 5.40666C21.9674 5.40584 21.9661 5.40522 21.9662 5.40525C21.9664 5.40535 21.9722 5.40819 21.983 5.41706L22.6192 4.64561C22.4887 4.53792 22.3265 4.45123 22.1361 4.42127L21.9806 5.40911ZM2.69995 5.41519H22.0584V4.41519H2.69995V5.41519ZM2.77536 5.41706C2.78611 5.40819 2.79191 5.40535 2.79211 5.40525C2.79217 5.40522 2.79089 5.40584 2.78832 5.40666C2.78571 5.40749 2.78212 5.40841 2.77768 5.40911L2.62221 4.42127C2.43182 4.45123 2.26963 4.53792 2.13906 4.64561L2.77536 5.41706ZM2.88242 5.56835L2.9517 5.10533L1.96272 4.95734L1.89343 5.42035L2.88242 5.56835ZM2.33274 6.05491C2.39428 6.02136 2.45949 5.99428 2.52774 5.9744L2.2481 5.0143C2.10972 5.0546 1.97788 5.10942 1.85414 5.17688L2.33274 6.05491ZM2.43253 6.5328C2.44361 6.24099 2.4937 5.98358 2.56479 5.7827L1.62209 5.44908C1.51297 5.75739 1.44763 6.11612 1.43325 6.49486L2.43253 6.5328ZM2.36976 7.38086L2.43151 6.55093L1.43427 6.47673L1.37251 7.30666L2.36976 7.38086ZM22.8872 6.84376H1.87114V7.84376H22.8872V6.84376ZM22.3268 6.55093L22.3886 7.38086L23.3858 7.30666L23.324 6.47673L22.3268 6.55093ZM22.1936 5.7829C22.2646 5.98375 22.3147 6.2411 22.3258 6.5328L23.3251 6.49486C23.3107 6.11625 23.2454 5.75763 23.1363 5.4494L22.1936 5.7829ZM22.2303 5.97432C22.2986 5.99425 22.3638 6.02139 22.4253 6.055L22.9046 5.17731C22.7808 5.10973 22.6489 5.05479 22.5105 5.01438L22.2303 5.97432ZM21.8066 5.10533L21.8759 5.56835L22.8649 5.42035L22.7956 4.95734L21.8066 5.10533ZM5.61866 0.502184C4.96841 0.502184 4.33611 0.958473 4.21652 1.62226L5.20067 1.79957C5.22409 1.66958 5.39135 1.50218 5.61866 1.50218V0.502184ZM19.1396 0.502184H5.61866V1.50218H19.1396V0.502184ZM20.5418 1.62226C20.4222 0.958472 19.7899 0.502184 19.1396 0.502184V1.50218C19.367 1.50218 19.5342 1.66958 19.5576 1.79957L20.5418 1.62226ZM20.8444 3.3442L20.5422 1.62436L19.5573 1.79746L19.8595 3.51731L20.8444 3.3442ZM4.40632 3.93076H20.352V2.93076H4.40632V3.93076ZM4.21614 1.62436L3.91387 3.3442L4.89877 3.51731L5.20105 1.79746L4.21614 1.62436ZM18.9641 33.8167H5.79417V34.8167H18.9641V33.8167ZM19.2961 26.8633L18.4672 34.261L19.461 34.3723L20.2898 26.9747L19.2961 26.8633ZM4.96536 27.419H19.7929V26.419H4.96536V27.419ZM6.29106 34.261L5.46225 26.8633L4.46847 26.9747L5.29728 34.3723L6.29106 34.261ZM3.43125 13.7388H21.3271V12.7388H3.43125V13.7388ZM2.35254 8.07913L2.93433 13.2942L3.92817 13.1833L3.34637 7.96826L2.35254 8.07913ZM21.9089 7.52369H2.84946V8.52369H21.9089V7.52369ZM21.824 13.2942L22.4058 8.07913L21.4119 7.96826L20.8301 13.1833L21.824 13.2942Z" fill="#273766"/>
</svg>
