<svg width="20" height="20" viewBox="0 0 20 20" fill="none" xmlns="http://www.w3.org/2000/svg">
<path fill-rule="evenodd" clip-rule="evenodd" d="M12.622 0.133419C12.8344 0.0453377 13.0621 0 13.292 0C13.5219 0 13.7496 0.0453377 13.962 0.133419C14.1744 0.221501 14.3673 0.350597 14.5298 0.513322L15.932 1.91558C16.0947 2.0781 16.2238 2.27111 16.3119 2.48356C16.4 2.69601 16.4453 2.92373 16.4453 3.1537C16.4453 3.38367 16.4 3.61139 16.3119 3.82385C16.2238 4.03629 16.0947 4.2293 15.932 4.39183L14.1821 6.14171C14.172 6.15323 14.1614 6.16451 14.1503 6.17553C14.1393 6.18654 14.128 6.19715 14.1165 6.20734L5.09833 15.2255C4.95768 15.3662 4.76691 15.4452 4.568 15.4452H1.75C1.33579 15.4452 1 15.1094 1 14.6952V11.8772C1 11.6783 1.07903 11.4875 1.21969 11.3468L10.232 2.33535C10.244 2.32151 10.2565 2.30801 10.2697 2.29487C10.2828 2.28171 10.2964 2.26914 10.3102 2.25717L12.0542 0.513322C12.2166 0.350822 12.4098 0.221416 12.622 0.133419ZM10.8014 3.88725L2.5 12.1879V13.9452H4.25734L12.5583 5.6442L10.8014 3.88725ZM13.619 4.58354L11.8621 2.82664L13.1158 1.57308C13.1389 1.54991 13.1664 1.53153 13.1966 1.51899C13.2269 1.50645 13.2593 1.5 13.292 1.5C13.3247 1.5 13.3571 1.50645 13.3874 1.51899C13.4176 1.53153 13.4455 1.55037 13.4687 1.57353L14.8717 2.97653C14.8949 2.99975 14.9137 3.02762 14.9262 3.05797C14.9388 3.08831 14.9453 3.12084 14.9453 3.1537C14.9453 3.18656 14.9388 3.21909 14.9262 3.24944C14.9137 3.27978 14.8949 3.30765 14.8717 3.33087L13.619 4.58354ZM0 18.6952C0 18.281 0.335786 17.9452 0.75 17.9452H18.75C19.1642 17.9452 19.5 18.281 19.5 18.6952C19.5 19.1094 19.1642 19.4452 18.75 19.4452H0.75C0.335786 19.4452 0 19.1094 0 18.6952Z" fill="white"/>
</svg>
