<svg width="261" height="261" viewBox="0 0 261 261" fill="none" xmlns="http://www.w3.org/2000/svg">
<mask id="mask0_1493_11577" style="mask-type:alpha" maskUnits="userSpaceOnUse" x="0" y="0" width="261" height="261">
<circle cx="130.5" cy="130.5" r="130.5" fill="#EFEFFD"/>
</mask>
<g mask="url(#mask0_1493_11577)">
<circle cx="130.5" cy="130.5" r="130.5" fill="#F5F5FF"/>
<circle cx="44.7427" cy="55.9284" r="74.5714" fill="#D5DDEE"/>
<path d="M143.55 147.279H274.05V277.779H143.55V147.279Z" fill="#D5DDEE"/>
<path d="M44.7431 95.0785C44.7431 82.7231 54.7591 72.707 67.1145 72.707H192.022C204.377 72.707 214.393 82.7231 214.393 95.0785V242.357C214.393 254.712 204.377 264.728 192.022 264.728H67.1146C54.7592 264.728 44.7431 254.712 44.7431 242.357V95.0785Z" fill="white"/>
<path d="M91.9965 176.694C91.549 174.955 90.9854 174.184 88.6186 173.641C86.2658 173.1 83.8441 172.779 81.4123 172.678C81.4936 171.017 81.2312 169.322 80.649 167.765C78.828 162.894 74.8339 163.344 73.6881 165.257C72.9441 166.498 73.414 167.768 72.7319 168.947C72.6251 169.132 72.6878 169.369 72.8736 169.476C73.0587 169.584 73.2956 169.52 73.4024 169.335C74.1991 167.956 73.7253 166.7 74.3524 165.655C74.9787 164.61 76.5565 164.472 77.5808 164.999C79.8856 166.184 80.769 170.065 80.6381 172.653C78.1312 172.598 75.6205 172.776 73.1694 173.19C70.8909 173.576 69.6104 174.477 69.6537 178.142C69.6986 181.955 69.3433 186.797 71.4739 189.862C71.8346 190.126 72.2063 190.387 72.5872 190.646C70.7066 187.954 70.407 182.988 70.4271 179.77C70.4395 177.975 70.1794 175.536 71.5528 174.538C72.0328 174.189 72.6522 174.062 73.2987 173.954C78.283 173.11 83.5197 173.263 88.4452 174.395C90.5054 174.868 90.8646 175.409 91.247 176.887C92.838 183.063 92.9263 189.612 91.5033 195.828C91.3167 196.644 91.1565 196.923 90.2235 197.115C89.7234 197.218 88.2098 197.364 86.9928 197.431C87.6509 197.639 88.3167 197.838 88.9918 198.029C89.4555 198.018 89.9193 197.968 90.3792 197.874C91.6473 197.612 92.0112 197.075 92.2574 196.001C93.7082 189.665 93.6184 182.988 91.9965 176.694Z" fill="black"/>
<path d="M74.6039 189.804C74.3329 189.804 74.1456 189.532 74.2424 189.279C74.8176 187.773 75.9944 186.539 77.4716 185.893C77.6674 185.806 77.8958 185.897 77.981 186.093C78.0669 186.288 77.9771 186.517 77.7813 186.602C76.5123 187.157 75.4594 188.261 74.9655 189.555C74.9066 189.709 74.7595 189.804 74.6039 189.804Z" fill="black"/>
<path d="M77.2345 191.623C76.9992 191.623 76.8219 191.417 76.8498 191.189C77.0147 189.816 78.1156 188.611 79.4673 188.322C79.6756 188.276 79.8823 188.41 79.9272 188.619C79.9721 188.828 79.8382 189.034 79.6291 189.079C78.5909 189.301 77.7455 190.227 77.6185 191.281C77.5945 191.478 77.4281 191.622 77.2345 191.622V191.623Z" fill="black"/>
<path d="M82.8615 193.814C82.6749 193.814 82.51 193.679 82.4798 193.488C82.2955 192.336 81.8008 191.255 81.0483 190.363C80.9105 190.199 80.9314 189.956 81.0947 189.817C81.2573 189.678 81.502 189.7 81.6405 189.863C82.4836 190.863 83.038 192.074 83.2447 193.365C83.2826 193.601 83.1007 193.813 82.8622 193.813L82.8615 193.814Z" fill="black"/>
<path d="M80.2959 193.82L79.2616 191.589C79.1718 191.395 79.2562 191.165 79.4497 191.075C79.6433 190.984 79.8732 191.069 79.9638 191.263L80.9981 193.494C81.2141 193.96 80.5104 194.282 80.2959 193.82Z" fill="black"/>
<path d="M84.8496 194.032C84.557 194.032 84.3658 193.713 84.5136 193.454C85.0378 192.532 85.2538 191.445 85.1214 190.394C85.0951 190.182 85.2452 189.988 85.4574 189.961C85.668 189.939 85.8631 190.084 85.8902 190.297C86.0435 191.513 85.7934 192.77 85.1872 193.836C85.116 193.961 84.9851 194.032 84.8504 194.032H84.8496Z" fill="black"/>
<path d="M87.434 195.931C87.0593 195.931 86.9036 195.45 87.2071 195.23C88.1718 194.534 88.747 193.316 88.6727 192.128C88.6595 191.915 88.8213 191.731 89.035 191.718C89.2487 191.714 89.4322 191.866 89.4454 192.08C89.5359 193.526 88.8361 195.01 87.6608 195.858C87.5927 195.908 87.5129 195.932 87.4347 195.932L87.434 195.931Z" fill="black"/>
<path d="M86.6738 191.173C87.5184 189.997 88.8841 189.229 90.3272 189.118C90.5432 189.098 90.7267 189.261 90.743 189.474C90.7592 189.687 90.5997 189.873 90.3868 189.89C89.1682 189.984 88.0155 190.632 87.3024 191.625C87.0105 192.03 86.3718 191.594 86.6738 191.173Z" fill="black"/>
<path d="M85.4961 189.205C85.3831 189.205 85.2708 189.156 85.1949 189.061C84.3487 188.012 82.9397 187.455 81.6065 187.649C81.3982 187.681 81.1985 187.533 81.1683 187.321C81.1381 187.11 81.2852 186.913 81.4966 186.883C83.0945 186.655 84.7831 187.318 85.7973 188.574C86.0024 188.829 85.8174 189.205 85.4961 189.205Z" fill="black"/>
<path d="M86.1526 186.728C87.1707 185.957 88.4807 185.615 89.7449 185.793C89.9563 185.822 90.1042 186.018 90.0747 186.229C90.0453 186.441 89.8479 186.589 89.6381 186.559C88.5774 186.412 87.4757 186.697 86.6202 187.344C86.2161 187.65 85.7431 187.038 86.1526 186.728Z" fill="black"/>
<path d="M80.4786 186.314C80.3446 186.314 80.2146 186.245 80.1426 186.121C79.5936 185.167 78.6174 184.489 77.5319 184.307C77.3214 184.272 77.1789 184.072 77.2137 183.861C77.2486 183.65 77.4491 183.506 77.6597 183.543C78.9712 183.763 80.1503 184.582 80.813 185.734C80.9632 185.995 80.7712 186.314 80.4786 186.314Z" fill="black"/>
<path d="M82.2051 185.225C81.8621 185.225 81.6856 184.806 81.9333 184.562C82.9491 183.561 84.5788 183.246 85.8942 183.796C86.0916 183.879 86.1845 184.105 86.1017 184.302C86.0196 184.5 85.7935 184.593 85.5953 184.511C84.5594 184.076 83.2774 184.326 82.4768 185.113C82.4017 185.187 82.3034 185.225 82.2051 185.225Z" fill="black"/>
<path d="M72.6497 187.609C72.3749 187.609 72.1844 187.326 72.2943 187.069C72.8216 185.837 74.02 184.928 75.3486 184.752C75.8627 184.692 75.9525 185.453 75.45 185.519C74.387 185.66 73.4278 186.388 73.0066 187.373C72.9439 187.52 72.8007 187.608 72.6505 187.608L72.6497 187.609Z" fill="black"/>
<path d="M95.6514 189.838C97.4553 190.075 99.212 190.73 100.722 191.743C101.151 192.031 101.651 192.381 101.818 192.895C102.341 194.506 98.6669 195.077 96.2104 195.92C95.8937 196.028 95.9286 196.533 96.2925 196.526C97.4321 196.504 98.5299 196.157 99.5813 195.727C100.43 195.38 101.508 195.007 102.073 194.238C103.394 192.435 100.362 191.055 99.1059 190.552C98.0042 190.112 96.8344 189.86 95.6522 189.775C95.6104 189.772 95.6127 189.833 95.6522 189.839L95.6514 189.838Z" fill="black"/>
<path d="M100.679 188.299C103.042 188.494 107.307 189.569 108.468 191.619C108.78 192.171 108.914 192.863 108.671 193.467C108.396 194.156 107.656 194.541 107.05 194.895C105.793 195.629 104.463 196.224 103.159 196.867C102.801 197.043 103.052 197.614 103.428 197.506C104.713 197.133 105.904 196.543 107.055 195.864C108.044 195.281 109.188 194.628 109.395 193.392C109.99 189.843 104.278 188.106 100.68 188.082C100.538 188.081 100.542 188.289 100.68 188.3L100.679 188.299Z" fill="black"/>
<path d="M96.2941 185.253C99.5837 185.832 102.848 186.501 106.051 187.458C108.763 188.269 112.957 189.275 112.831 191.859C112.74 193.717 110.873 194.615 109.565 195.562C109.27 195.775 109.517 196.196 109.849 196.047C113.787 194.274 114.198 191.07 112.109 189.413C110.939 188.485 109.403 188.079 108.002 187.644C100.899 185.438 95.7018 185.149 96.2941 185.253Z" fill="black"/>
<path d="M118.312 187.42C110.826 182.326 101.413 180.718 92.2209 179.504C92.2697 179.77 92.3169 180.037 92.3603 180.304C100.953 181.446 110.603 183.099 117.633 187.895C119.087 188.886 120.653 189.936 121.38 191.281C121.482 190.984 121.6 190.687 121.734 190.388C120.864 189.157 119.468 188.207 118.312 187.42Z" fill="black"/>
<path d="M121.259 196.214C119.221 205.022 118.412 207.123 117.129 210.709C114.666 217.594 103.579 225.77 83.0954 220.069C63.1155 214.506 57.5195 202.792 58.7977 194.45C59.2762 191.327 60.1534 187.05 62.9103 178.947C63.2773 182.025 65.428 185.347 69.193 188.556C83.419 200.687 112.644 204.96 121.143 195.835L121.14 195.826C121.056 195.521 120.994 195.212 120.954 194.9C120.091 195.982 118.878 196.902 117.372 197.649C116.479 198.069 115.636 198.379 115.053 198.573C114.266 198.836 113.453 199.06 112.615 199.25C106.479 200.576 98.0971 200.164 89.3184 197.72C82.517 195.826 75.104 192.58 69.6954 187.967C68.5535 186.993 67.561 186.047 66.7705 185.084C66.5769 184.848 66.3973 184.594 66.2169 184.332C66.0675 184.115 65.9738 184.04 66.4027 183.691C67.5176 182.786 68.7602 182.095 70.0477 181.558C70.0446 181.278 70.0431 180.999 70.0431 180.723C68.5906 181.301 67.1785 182.064 65.915 183.09C65.7532 183.221 65.627 183.348 65.5333 183.473C59.9722 175.274 66.8735 168.772 81.0817 168.772C92.7373 168.772 107.581 173.307 116.366 180.798C119.728 183.666 121.747 186.591 122.286 189.303C122.462 188.994 122.654 188.683 122.862 188.374C121.957 185.306 119.46 182.42 116.868 180.209C111.967 176.031 104.894 172.512 96.9505 170.301C89.3618 168.188 76.4264 166.713 68.7919 170.177C68.7393 170.082 68.6843 169.993 68.6294 169.909C63.1666 161.622 53.1778 163.724 50.5672 171.611C49.4461 174.998 50.0074 179.151 52.0691 182.723C53.928 185.942 56.688 188.858 58.4091 192.137C58.2558 192.938 58.135 193.662 58.0321 194.334C56.7051 202.988 62.4187 215.116 82.8871 220.815C87.7785 222.177 92.1512 222.758 96.0122 222.758C108.722 222.758 115.892 216.459 117.857 210.97C119.522 206.317 120.344 203.556 121.686 197.812C121.597 197.428 121.305 196.354 121.258 196.215L121.259 196.214ZM63.2045 175.746C62.0742 178.923 61.197 181.591 60.508 183.865C58.4648 180.961 55.8666 177.8 56.5309 174.22C56.8104 172.712 57.9128 171.405 59.2104 171.043C59.8607 170.863 60.5552 170.888 61.2094 170.942C62.7942 171.075 63.4128 172.544 64.0941 173.964C63.7348 174.512 63.436 175.105 63.2045 175.746ZM52.7396 182.335C50.7871 178.952 50.249 175.033 51.3019 171.853C52.6064 167.911 56.1113 165.369 59.7941 165.369C63.3818 165.369 66.316 167.805 67.9829 170.334C68.0201 170.39 68.0572 170.451 68.0936 170.514C66.7039 171.234 65.5178 172.139 64.6112 173.257C63.9245 171.827 63.1526 170.328 61.2736 170.171C60.5823 170.113 59.7725 170.082 59.0021 170.298C57.4305 170.736 56.1012 172.291 55.7691 174.079C55.0026 178.214 58.118 181.728 60.2246 184.814C59.4938 187.302 58.9998 189.292 58.646 190.959C56.8948 187.952 54.4274 185.258 52.7396 182.333V182.335Z" fill="black"/>
<path d="M197.821 188.023C197.492 184.403 195.353 181.251 192.239 179.799C188.838 178.213 184.768 178.976 181.447 181.771C181.173 180.933 180.876 180.059 180.554 179.144C177.021 169.187 157.132 170.76 146.825 173.596C130.318 178.139 118.627 188.157 120.766 195.928C122.911 203.728 123.197 207.264 127.005 213.236C133.263 223.05 145.898 228.414 160.74 224.151C169.503 221.636 175.681 217.384 179.579 212.577C180.21 213.644 181.586 213.478 182.3 212.47C182.67 211.948 182.809 211.339 182.997 210.694C184.587 205.254 190.131 202.381 193.881 198.378C196.666 195.405 198.139 191.534 197.821 188.023ZM162.559 172.116C174.928 172.116 181.83 177.028 179.782 183.694C179.057 184.922 179.11 185.376 178.793 185.926C178.615 185.244 178.042 184.607 177.051 183.986C173.572 181.807 169.342 181.391 166.047 181.273C161.295 181.102 156.261 181.441 149.724 182.37C141.731 183.505 132.491 185.331 124.559 190.266C122.963 191.259 121.597 192.468 121.276 194.193C120.874 184.013 142.982 172.116 162.559 172.116ZM137.376 199.434C138.369 200.219 139.901 200.008 141.054 199.802C147.694 198.612 155.104 192.868 162.011 190.639C160.324 190.446 158.68 190.36 154.993 191.887C143.918 196.472 142.603 197.947 141.237 197.101C139.388 195.955 142.18 193.166 144.72 193.954C144.929 194.018 144.888 194.328 144.668 194.333C142.982 194.371 141.816 195.126 141.41 195.8C141.098 196.318 141.583 196.752 142.1 196.765C142.918 196.786 143.832 196.222 144.569 195.916C155.495 191.371 156.468 190.599 159.139 190.241C152.55 189.369 148.744 188.268 144.552 190.584C144.137 190.813 143.605 191.069 143.554 191.6C143.453 192.653 144.756 193.073 145.574 193.114C145.744 193.123 145.743 193.37 145.574 193.379C144.814 193.421 144.01 193.356 143.478 192.744C143.101 192.31 142.926 191.642 143.185 191.106C143.492 190.471 144.308 190.131 144.906 189.845C149.033 187.867 152.562 188.872 160.609 189.937C161.442 190.047 162.296 190.108 163.111 190.32C164.193 190.043 165.296 189.879 166.39 189.922C166.625 189.931 166.612 190.25 166.39 190.277C163.52 190.632 161.32 191.219 157.508 193.066C151.919 195.775 146.861 199.212 141.809 200.401C140.55 200.697 139.151 200.95 137.883 200.582C136.591 200.207 135.732 199.073 135.901 197.711C136.243 194.969 139.922 192.842 142.708 193.268C142.911 193.299 142.895 193.619 142.708 193.662C141.06 194.043 139.282 194.495 138.006 195.68C137.044 196.572 136.061 198.393 137.377 199.435L137.376 199.434ZM138.078 192.876C137.07 193.39 136.018 193.798 135.051 194.39C133.213 195.513 130.649 197.801 131.667 199.699C132.805 201.819 137.809 201.811 140.184 201.75C142.499 201.691 144.804 201.373 147.048 200.8C153.427 199.171 160.043 193.023 168.947 190.258C170.729 189.704 172.683 189.155 174.563 189.207C174.782 189.213 174.834 189.537 174.615 189.593C172.722 190.078 171.277 190.101 167.987 191.233C162.244 193.208 157.723 196.391 152.951 198.962C149.445 200.851 147.074 201.674 142.913 202.147C140.52 202.419 138.115 202.399 135.723 202.139C134.151 201.968 132.237 201.667 131.239 200.287C129.983 198.551 131.375 196.553 132.678 195.336C134.104 194.004 136.007 192.735 137.999 192.588C138.152 192.576 138.212 192.808 138.078 192.876ZM168.653 188.709C166.157 188.907 163.636 189.019 161.134 188.875C155.348 188.542 148.756 184.993 143.402 187.212C139.518 188.82 140.547 192.372 142.519 192.769C142.601 192.786 142.583 192.928 142.498 192.917C141.311 192.767 140.606 191.716 140.465 190.588C140.286 189.168 141.08 187.991 142.224 187.215C144.748 185.501 148.695 185.758 151.677 186.339C157.442 187.462 158.648 188.878 168.864 188.031C171.316 187.828 173.741 187.442 176.184 187.161C176.436 187.133 176.462 187.517 176.241 187.585C173.814 188.329 171.172 188.51 168.653 188.71L168.653 188.709ZM172.03 186.502C158.366 186.709 148.786 181.859 139.529 186.047C138.284 186.61 136.766 187.396 136.292 188.779C135.895 189.934 136.711 191.457 138.046 191.289C138.352 191.251 138.368 191.706 138.114 191.794C136.778 192.262 135.645 190.86 135.548 189.641C135.423 188.068 136.806 186.863 138.044 186.158C143.902 182.82 151.025 183.659 157.382 184.648C169.904 186.598 174.197 185.71 176.678 185.581C176.971 185.566 177.022 186.016 176.746 186.086C175.232 186.468 173.584 186.479 172.03 186.502ZM179.226 210.977C179.226 211.252 179.247 211.495 179.282 211.71C175.5 216.555 169.356 220.873 160.526 223.408C145.968 227.586 133.714 222.321 127.656 212.821C125.858 210 124.494 207.87 122.323 198.823C130.324 208.218 159.964 204.278 174.527 191.937C176.331 190.408 177.766 188.853 178.814 187.31C178.959 188.268 179.565 188.977 180.736 189.207C181.497 189.355 182.116 189.193 182.655 188.86C183.558 192.715 183.847 195.566 183.983 198.075C184 198.379 184.007 198.686 184.007 198.994C183.971 199.033 183.935 199.071 183.898 199.109C180.919 202.291 179.216 206.617 179.226 210.976V210.977ZM183.326 188.332C184.737 186.989 185.687 184.695 187.728 184.998C188.37 185.093 189.044 185.223 189.627 185.543C190.792 186.183 191.558 187.685 191.488 189.196C191.308 193.13 187.515 195.65 184.766 198.244C184.764 198.173 184.76 198.104 184.756 198.033C184.614 195.41 184.306 192.42 183.326 188.332ZM193.315 197.848C189.425 202 183.9 204.68 182.166 210.778C182.035 211.238 181.914 211.674 181.667 212.022C181.079 212.852 180.003 212.825 180 210.975C179.991 206.811 181.617 202.679 184.463 199.639C187.132 196.788 192.042 194.023 192.262 189.231C192.345 187.436 191.414 185.64 189.999 184.864C189.231 184.443 187.981 184.195 187.355 184.195C184.178 184.195 183.446 188.945 180.887 188.446C180.356 188.343 179.995 188.124 179.781 187.777C179.022 186.547 180.307 183.884 181.354 182.891C183.854 180.521 187.94 178.649 191.911 180.501C197.811 183.252 199.155 191.615 193.315 197.848Z" fill="black"/>
<path d="M125.963 160.984C125.964 160.974 125.964 160.974 125.963 160.984V160.984Z" fill="black"/>
<path d="M136.154 168.673C135.669 170.044 134.431 171.144 132.96 171.302C131.541 171.455 130.142 170.763 129.157 169.781C127.27 167.899 127.07 165.125 126.938 162.32C127.12 161.066 127.136 160.988 127.062 160.83C126.846 160.333 126.04 160.317 125.954 161.055C126.067 160.02 125.305 166.615 123.078 168.927C122.075 169.969 120.452 170.525 119.04 170.714C116.605 171.039 115.357 170.407 113.649 169.929C113.2 169.804 112.829 170.399 113.185 170.727C115.267 172.654 120.163 172.917 123.459 170.445C124.969 169.312 125.849 167.069 126.345 165.248C126.422 165.875 126.527 166.498 126.677 167.109C127.356 169.868 130.012 172.567 133.055 172.003C134.709 171.697 136.044 170.369 136.468 168.76C136.522 168.554 136.223 168.477 136.154 168.673Z" fill="black"/>
<path d="M132.087 225.461C128.799 226.897 126.358 230.027 125.324 233.494C124.269 229.656 121.367 224.144 117.403 223.613C115.04 223.297 112.751 224.554 110.648 225.742C108.035 227.217 105.545 228.657 103.272 230.669C104.058 228.334 104.551 225.895 104.561 223.425C104.585 217.332 99.6067 216.926 98.4384 219.13C98.4167 219.171 98.5422 219.274 98.5654 219.233C99.2668 218 100.885 217.914 102.059 218.487C103.492 219.185 103.927 220.723 104.006 222.201C104.152 224.892 103.288 229.09 101.493 232.452C101.223 232.955 101.894 233.533 102.31 233.083C103.771 231.495 105.483 230.19 107.298 229.034C109.079 227.899 110.921 226.812 112.803 225.851C116.851 223.786 119.686 224.186 122.774 230.101C123.891 232.24 124.573 234.601 124.78 237.005C124.844 237.753 125.95 237.778 125.963 237.005C126.043 232.444 128.629 228.484 132.477 226.13C132.913 225.864 132.534 225.267 132.087 225.461Z" fill="black"/>
<path d="M85.959 160.774C87.7684 158.593 87.581 155.634 86.7665 153.079C85.1043 147.869 79.0988 142.285 83.4173 136.367C85.0114 134.183 87.5338 132.777 90.0584 131.941C96.1909 129.912 103.25 131.368 108.982 127.963C112.137 126.088 113.196 123.572 112.557 120.304C111.971 117.309 110.353 115.18 110.878 111C111.735 104.188 117.664 99.359 125.284 100.174C125.617 100.21 125.686 99.6655 125.363 99.592C119.475 98.2534 113.193 101.764 110.807 107.206C109.582 110 109.288 113.138 110.043 116.1C110.808 119.1 112.684 122.6 110.289 125.351C106.36 129.863 97.4498 129.115 91.5976 130.602C86.7054 131.845 81.0823 135.431 81.2921 141.12C81.4114 144.349 83.2811 147.171 84.8279 149.889C86.7518 153.27 88.2228 157.523 85.7632 160.578C85.6525 160.716 85.8445 160.914 85.9598 160.775L85.959 160.774Z" fill="black"/>
<path d="M100.835 166.383C109.559 164.856 116.351 156.61 114.736 147.9C114.368 145.917 113.253 142.717 113.844 140.699C114.314 139.095 115.492 137.774 116.849 136.844C121.977 133.326 127.977 135.722 139.477 130.198C142.676 128.662 145.763 126.495 147.17 123.112C149.928 116.478 144.041 112.978 141.334 110C137.964 106.292 138.298 103.429 141.121 100.62C143.314 98.4384 145.566 97.5147 148.044 96.6794C148.39 96.5625 148.361 95.9617 147.953 96.0019C144.49 96.3434 141.082 98.5282 139.02 101.291C136.558 104.589 137.801 107.966 140.583 110.982C142.822 113.409 146.228 115.454 146.708 119.011C147.211 122.738 144.593 125.969 141.677 127.913C136.906 131.092 130.574 132.887 124.861 133.776C122.882 134.084 120.88 134.379 118.997 135.092C116.137 136.176 113.361 138.524 113.116 141.766C112.877 144.934 114.885 146.999 114.077 152.16C113.053 158.703 107.841 164.943 100.808 166.186C100.678 166.209 100.611 166.423 100.835 166.383Z" fill="black"/>
<path d="M144.009 170.985C145.104 168.807 145.868 166.3 146.06 163.864C146.254 161.414 145.607 159.061 144.087 157.118C142.755 155.415 140.98 153.924 140.228 151.84C139.541 149.938 139.594 147.825 140.352 145.95C142.132 141.541 147.123 140.79 151.164 139.617C155.82 138.266 160.168 135.781 163.569 132.31C165.348 130.494 166.945 128.255 167.338 125.687C167.683 123.432 167.169 120.901 165.347 119.385C165.104 119.183 164.778 119.496 164.996 119.736C166.444 121.328 166.925 123.588 166.492 125.673C166.015 127.97 164.544 129.917 162.896 131.524C159.507 134.831 155.24 137.204 150.684 138.457C146.535 139.597 141.742 140.408 139.488 144.553C138.504 146.363 138.132 148.471 138.414 150.509C138.95 154.369 142.061 156.487 143.725 158.95C146.264 162.708 144.69 166.777 143.766 170.881C143.734 171.021 143.938 171.124 144.009 170.983V170.985Z" fill="black"/>
<path d="M191.563 107.491C185.506 108.786 179.878 114.92 178.997 122.344C178.249 128.644 181.502 132.614 182.488 137.792C183.002 140.495 182.528 143.135 181.041 145.453C177.971 150.242 172.436 152.303 167.659 154.907C163.094 157.395 158.214 161.316 157.929 166.965C157.897 167.588 157.994 168.22 158.126 168.827C158.194 169.143 158.721 169.079 158.696 168.75C158.496 166.094 159.329 163.592 160.878 161.45C165.719 154.755 175.361 153.826 180.776 147.266C187.477 139.147 180.195 132.475 179.868 124.974C179.576 118.28 183.677 110.804 191.693 107.958C191.985 107.854 191.871 107.426 191.564 107.491H191.563Z" fill="black"/>
</g>
<circle cx="216.257" cy="50.336" r="33.5571" fill="#101010"/>
<path d="M208 58.3584L224.358 42" stroke="white" stroke-width="4" stroke-linecap="round" stroke-linejoin="round"/>
<path d="M224.358 58.3584L208 42" stroke="white" stroke-width="4" stroke-linecap="round" stroke-linejoin="round"/>
</svg>
