<svg width="40" height="40" viewBox="0 0 40 40" fill="none" xmlns="http://www.w3.org/2000/svg">
<path d="M0 20C0 8.9543 8.9543 0 20 0C31.0457 0 40 8.9543 40 20C40 31.0457 31.0457 40 20 40C8.9543 40 0 31.0457 0 20Z" fill="#1877F2"/>
<path d="M30 20.5C30 15.275 25.725 11 20.5 11C15.275 11 11 15.275 11 20.5C11 25.25 14.4437 29.1687 18.9562 29.8813V23.2312H16.5812V20.5H18.9562V18.3625C18.9562 15.9875 20.3813 14.6813 22.5188 14.6813C23.5875 14.6813 24.6562 14.9188 24.6562 14.9188V17.2938H23.4688C22.2812 17.2938 21.925 18.0062 21.925 18.7188V20.5H24.5375L24.0625 23.2312H21.8063V30C26.5563 29.2875 30 25.25 30 20.5Z" fill="white"/>
</svg>
