<svg width="57" height="57" viewBox="0 0 57 57" fill="none" xmlns="http://www.w3.org/2000/svg">
<g clip-path="url(#clip0_768_8405)">
<path d="M57 28.5C57 29.502 56.8889 30.3926 56.7773 31.2832C56.7773 31.3945 56.7773 31.3945 56.7773 31.5059L55.1076 53.7717C54.9961 55.6641 53.4375 57 51.6562 57C49.7639 57 48.2049 55.6641 48.0938 53.7717L47.7596 49.5408C47.2031 50.0977 46.6467 50.543 45.9783 50.9883L44.7539 54.6623C44.1971 56.1094 42.8611 57 41.4141 57C40.0781 57 38.9648 56.332 38.2969 55.3299C35.1797 56.4435 31.9512 57 28.5 57C20.707 57 13.6934 53.994 8.57227 48.9844C7.9043 49.5408 7.125 49.875 6.23438 49.875C4.45312 49.875 3.00586 48.6502 2.67188 46.9805L0.667969 34.957C0.222656 32.8418 0 30.7266 0 28.5C0 12.8027 12.6914 0 28.5 0C44.1971 0 57 12.8027 57 28.5ZM6.23438 46.3125L8.46094 32.9531C8.68359 31.6172 7.57031 30.2812 6.23438 30.2812C4.78711 30.2812 3.67383 31.6172 3.89648 32.9531L6.23438 46.3125ZM38.2969 44.5312L41.4141 53.4375L44.5312 44.5312V40.0781H38.2969V44.5312ZM44.4201 38.2969C43.9748 35.8477 41.7482 33.8438 39.1875 33.8438H38.2969V38.2969H44.4201ZM36.5156 38.2969V33.8438H29.3906V38.2969H36.5156ZM36.5156 44.5312V40.0781H29.3906V44.5312L32.9531 49.875L36.5156 44.5312ZM27.6094 33.8438H20.4844V38.2969H27.6094V33.8438ZM27.6094 40.0781H20.4844V44.5312H27.6094V40.0781ZM18.7031 38.2969V33.8438H17.8125C15.1406 33.8438 12.9141 35.8477 12.4688 38.2969H18.7031ZM18.7031 44.5312V40.0781H12.4688C12.9141 42.6389 15.1406 44.5312 17.8125 44.5312H18.7031ZM23.1562 23.1562C23.1562 21.2637 21.5977 19.5938 19.5938 19.5938C17.5898 19.5938 16.0312 21.2637 16.0312 23.1562C16.0312 25.1602 17.5898 26.7188 19.5938 26.7188C21.5977 26.7188 23.1562 25.1602 23.1562 23.1562ZM37.4062 26.7188C39.4102 26.7188 40.9688 25.1602 40.9688 23.1562C40.9688 21.2637 39.4102 19.5938 37.4062 19.5938C35.4023 19.5938 33.8438 21.2637 33.8438 23.1562C33.8438 25.1602 35.4023 26.7188 37.4062 26.7188ZM51.6562 53.4375L53.994 27.6094C54.217 26.2734 52.9922 24.9375 51.6562 24.9375C50.2092 24.9375 49.0955 26.2734 49.207 27.6094L51.6562 53.4375Z" fill="#273766"/>
</g>
<defs>
<clipPath id="clip0_768_8405">
<rect width="57" height="57" fill="white"/>
</clipPath>
</defs>
</svg>
