<svg width="40" height="40" viewBox="0 0 40 40" fill="none" xmlns="http://www.w3.org/2000/svg">
<path d="M0 20C0 8.9543 8.9543 0 20 0C31.0457 0 40 8.9543 40 20C40 31.0457 31.0457 40 20 40C8.9543 40 0 31.0457 0 20Z" fill="white"/>
<path d="M20 14.6844C21.6274 14.6844 22.7252 15.3874 23.3511 15.9748L25.7971 13.5866C24.2948 12.1903 22.34 11.3333 20 11.3333C16.6104 11.3333 13.683 13.2785 12.2578 16.1096L15.06 18.2859C15.763 16.1963 17.7082 14.6844 20 14.6844Z" fill="#EA4335"/>
<path d="M28.32 20.1926C28.32 19.48 28.2622 18.96 28.137 18.4207H20V21.637H24.7763C24.68 22.4363 24.16 23.64 23.0044 24.4489L25.7393 26.5674C27.3763 25.0555 28.32 22.8311 28.32 20.1926Z" fill="#4285F4"/>
<path d="M15.0697 21.7141C14.8867 21.1748 14.7808 20.597 14.7808 20C14.7808 19.403 14.8867 18.8252 15.06 18.2859L12.2578 16.1096C11.6704 17.2844 11.3334 18.6037 11.3334 20C11.3334 21.3963 11.6704 22.7155 12.2578 23.8904L15.0697 21.7141Z" fill="#FBBC05"/>
<path d="M20 28.6666C22.34 28.6666 24.3045 27.8963 25.7393 26.5674L23.0045 24.4489C22.2726 24.9592 21.2904 25.3155 20 25.3155C17.7082 25.3155 15.763 23.8037 15.0697 21.7141L12.2675 23.8903C13.6926 26.7215 16.6104 28.6666 20 28.6666Z" fill="#34A853"/>
</svg>
