<svg width="21" height="20" viewBox="0 0 21 20" fill="none" xmlns="http://www.w3.org/2000/svg">
<path fill-rule="evenodd" clip-rule="evenodd" d="M0.8942 5.82274C0.375 6.77128 0.375 7.91549 0.375 10.2039V11.725C0.375 15.6258 0.375 17.5763 1.54657 18.7881C2.71815 20 4.60376 20 8.375 20H12.375C16.1462 20 18.0319 20 19.2034 18.7881C20.375 17.5763 20.375 15.6258 20.375 11.725V10.2039C20.375 7.91549 20.375 6.77128 19.8558 5.82274C19.3366 4.87421 18.3881 4.28551 16.491 3.10812L14.491 1.86687C12.4856 0.62229 11.4829 0 10.375 0C9.26706 0 8.26439 0.62229 6.25903 1.86687L4.25903 3.10813C2.36195 4.28551 1.4134 4.87421 0.8942 5.82274ZM7.375 15.25C6.96079 15.25 6.625 15.5858 6.625 16C6.625 16.4142 6.96079 16.75 7.375 16.75H13.375C13.7892 16.75 14.125 16.4142 14.125 16C14.125 15.5858 13.7892 15.25 13.375 15.25H7.375Z" fill="#273766"/>
</svg>
