<svg width="20" height="20" viewBox="0 0 20 20" fill="none" xmlns="http://www.w3.org/2000/svg">
<path d="M8.39173 2.35003L2.61673 6.97502C1.96673 7.49169 1.55006 8.58338 1.69172 9.40005L2.80006 16.0334C3.00006 17.2167 4.13339 18.175 5.33339 18.175H14.6667C15.8584 18.175 17.0001 17.2084 17.2001 16.0334L18.3084 9.40005C18.4417 8.58338 18.0251 7.49169 17.3834 6.97502L11.6084 2.35837C10.7167 1.64171 9.27506 1.6417 8.39173 2.35003Z" stroke="black" stroke-width="1.5" stroke-linecap="round" stroke-linejoin="round"/>
<path d="M10.0001 12.9167C11.1507 12.9167 12.0834 11.9839 12.0834 10.8333C12.0834 9.68274 11.1507 8.75 10.0001 8.75C8.84949 8.75 7.91675 9.68274 7.91675 10.8333C7.91675 11.9839 8.84949 12.9167 10.0001 12.9167Z" stroke="black" stroke-width="1.5" stroke-linecap="round" stroke-linejoin="round"/>
</svg>
