<svg width="261" height="261" viewBox="0 0 261 261" fill="none" xmlns="http://www.w3.org/2000/svg">
<mask id="mask0_1461_10474" style="mask-type:alpha" maskUnits="userSpaceOnUse" x="0" y="0" width="261" height="261">
<circle cx="130.5" cy="130.5" r="130.5" fill="#EFEFFD"/>
</mask>
<g mask="url(#mask0_1461_10474)">
<circle cx="130.5" cy="130.5" r="130.5" fill="#F5F5FF"/>
<circle cx="44.7428" cy="55.9284" r="74.5714" fill="#D5DDEE"/>
<path d="M143.55 147.279H274.05V277.779H143.55V147.279Z" fill="#D5DDEE"/>
<rect x="44.7432" y="72.707" width="169.65" height="192.021" rx="22.3714" fill="white"/>
<path d="M132.337 221.415C132.337 222.894 130.165 224.094 127.499 224.094H117.83C112.487 224.094 108.156 226.492 108.156 229.45C108.156 232.407 112.48 234.809 117.83 234.809H123.389C127.255 234.809 129.99 237.249 129.926 240.101V240.167C129.926 244.111 138.05 247.307 148.068 247.307C158.086 247.307 166.21 244.111 166.21 240.167C166.197 239.507 165.985 238.867 165.602 238.331C164.505 236.711 166.172 234.809 168.628 234.809C173.971 234.809 178.302 232.411 178.302 229.453C178.302 226.496 173.971 224.097 168.628 224.097H166.201C164.197 224.097 162.572 223.297 162.572 222.311L132.337 221.415Z" fill="#D5DDEE" stroke="black" stroke-linecap="round" stroke-linejoin="round"/>
<path d="M165.681 227.35H94.5153C93.9633 227.352 93.417 227.239 92.9109 227.019C92.4049 226.798 91.9502 226.475 91.5757 226.069C91.2013 225.664 90.9153 225.185 90.7358 224.663C90.5564 224.141 90.4874 223.587 90.5333 223.037L96.1697 153.517H164.023L169.659 223.044C169.704 223.593 169.634 224.146 169.455 224.667C169.275 225.188 168.989 225.666 168.615 226.07C168.241 226.475 167.787 226.798 167.282 227.018C166.777 227.238 166.232 227.351 165.681 227.35Z" fill="white"/>
<path d="M165.681 227.35H94.5153C93.9633 227.352 93.417 227.239 92.9109 227.019C92.4049 226.798 91.9502 226.475 91.5757 226.069C91.2013 225.664 90.9153 225.185 90.7358 224.663C90.5564 224.141 90.4874 223.587 90.5333 223.037L96.1697 153.517H164.023L169.659 223.044C169.704 223.593 169.634 224.146 169.455 224.667C169.275 225.188 168.989 225.666 168.615 226.07C168.241 226.475 167.787 226.798 167.282 227.018C166.777 227.238 166.232 227.351 165.681 227.35Z" stroke="black" stroke-linecap="round" stroke-linejoin="round"/>
<path d="M96.1753 153.516L104.157 143.938L98.1699 137.552H162.027L156.041 143.938L164.023 153.516H96.1753Z" fill="#D5DDEE"/>
<path d="M96.1753 153.516L104.157 143.938L98.1699 137.552H162.027L156.041 143.938L164.023 153.516H96.1753Z" stroke="black" stroke-linecap="round" stroke-linejoin="round"/>
<path d="M98.1699 137.552V151.122L104.157 143.938L98.1699 137.552Z" fill="white" stroke="black" stroke-linecap="round" stroke-linejoin="round"/>
<path d="M162.027 137.552L156.041 143.938L162.027 151.122V137.552Z" fill="white" stroke="black" stroke-linecap="round" stroke-linejoin="round"/>
<path d="M152.832 108.368H107.367C106.887 108.368 106.426 108.558 106.087 108.898C105.747 109.237 105.557 109.698 105.557 110.178V153.516H154.642V110.178C154.642 109.698 154.451 109.237 154.112 108.898C153.772 108.558 153.312 108.368 152.832 108.368Z" fill="white"/>
<path d="M152.832 108.368H107.367C106.887 108.368 106.426 108.558 106.087 108.898C105.747 109.237 105.557 109.698 105.557 110.178V153.516H154.642V110.178C154.642 109.698 154.451 109.237 154.112 108.898C153.772 108.558 153.312 108.368 152.832 108.368Z" stroke="black" stroke-linecap="round" stroke-linejoin="round"/>
<path d="M113.137 196.421C113.137 197.214 113.452 197.976 114.014 198.537C114.575 199.099 115.336 199.414 116.13 199.414C116.924 199.414 117.686 199.099 118.247 198.537C118.809 197.976 119.124 197.214 119.124 196.421C119.124 195.627 118.809 194.865 118.247 194.304C117.686 193.742 116.924 193.427 116.13 193.427C115.336 193.427 114.575 193.742 114.014 194.304C113.452 194.865 113.137 195.627 113.137 196.421Z" fill="black"/>
<path d="M141.074 196.421C141.074 197.214 141.39 197.976 141.951 198.537C142.513 199.099 143.274 199.414 144.068 199.414C144.862 199.414 145.623 199.099 146.185 198.537C146.746 197.976 147.062 197.214 147.062 196.421C147.062 195.627 146.746 194.865 146.185 194.304C145.623 193.742 144.862 193.427 144.068 193.427C143.274 193.427 142.513 193.742 141.951 194.304C141.39 194.865 141.074 195.627 141.074 196.421Z" fill="black"/>
<path d="M154.544 211.641C154.556 212.238 154.449 212.832 154.229 213.387C154.009 213.942 153.68 214.448 153.262 214.874C152.844 215.301 152.345 215.64 151.794 215.871C151.243 216.103 150.652 216.222 150.055 216.222C149.457 216.222 148.866 216.103 148.315 215.871C147.765 215.64 147.266 215.301 146.848 214.874C146.429 214.448 146.101 213.942 145.88 213.387C145.66 212.832 145.553 212.238 145.565 211.641C145.565 209.161 150.054 200.419 150.054 200.419C150.054 200.419 154.544 209.156 154.544 211.641Z" fill="#D5DDEE" stroke="black" stroke-linecap="round" stroke-linejoin="round"/>
<path d="M108.148 163.493C108.148 165.08 108.779 166.603 109.902 167.726C111.024 168.848 112.547 169.479 114.134 169.479C115.722 169.479 117.244 168.848 118.367 167.726C119.489 166.603 120.12 165.08 120.12 163.493C120.12 161.905 119.489 160.383 118.367 159.26C117.244 158.138 115.722 157.507 114.134 157.507C112.547 157.507 111.024 158.138 109.902 159.26C108.779 160.383 108.148 161.905 108.148 163.493Z" fill="white" stroke="black" stroke-linecap="round" stroke-linejoin="round"/>
<path d="M140.077 163.493C140.077 165.08 140.707 166.603 141.83 167.726C142.952 168.848 144.475 169.479 146.062 169.479C147.65 169.479 149.172 168.848 150.295 167.726C151.417 166.603 152.048 165.08 152.048 163.493C152.048 161.905 151.417 160.383 150.295 159.26C149.172 158.138 147.65 157.507 146.062 157.507C144.475 157.507 142.952 158.138 141.83 159.26C140.707 160.383 140.077 161.905 140.077 163.493Z" fill="white" stroke="black" stroke-linecap="round" stroke-linejoin="round"/>
<path d="M130.098 187.439C125.337 187.434 120.772 185.54 117.405 182.174C114.038 178.807 112.144 174.242 112.139 169.481V163.495C112.139 162.967 112.349 162.46 112.722 162.087C113.096 161.714 113.602 161.504 114.13 161.504C114.658 161.504 115.165 161.714 115.538 162.087C115.911 162.46 116.121 162.967 116.121 163.495V169.482C116.163 173.16 117.653 176.672 120.268 179.257C122.883 181.843 126.412 183.293 130.09 183.293C133.767 183.293 137.296 181.843 139.911 179.257C142.527 176.672 144.017 173.16 144.059 169.482V163.495C144.059 162.967 144.268 162.46 144.642 162.087C145.015 161.714 145.521 161.504 146.05 161.504C146.578 161.504 147.084 161.714 147.457 162.087C147.831 162.46 148.041 162.967 148.041 163.495V169.482C148.035 174.241 146.143 178.803 142.78 182.168C139.417 185.534 134.856 187.43 130.098 187.439Z" fill="#D5DDEE" stroke="black" stroke-linecap="round" stroke-linejoin="round"/>
<path d="M121.533 214.988C121.195 214.988 120.861 214.91 120.556 214.761C120.252 214.613 119.986 214.396 119.778 214.129C119.57 213.862 119.425 213.551 119.356 213.219C119.286 212.888 119.293 212.545 119.376 212.217C119.991 209.84 121.377 207.736 123.318 206.233C125.259 204.73 127.644 203.915 130.098 203.915C132.553 203.915 134.938 204.73 136.879 206.233C138.819 207.736 140.206 209.84 140.821 212.217C140.904 212.545 140.912 212.888 140.842 213.22C140.773 213.551 140.629 213.863 140.421 214.13C140.213 214.397 139.947 214.614 139.642 214.762C139.338 214.911 139.004 214.988 138.665 214.988C135.844 214.386 132.979 214.016 130.098 213.882C127.218 214.016 124.353 214.386 121.533 214.988Z" fill="#D5DDEE" stroke="black" stroke-linecap="round" stroke-linejoin="round"/>
<path d="M137.354 140.327C136.866 140.329 136.383 140.234 135.932 140.047C135.481 139.861 135.071 139.587 134.726 139.241L130.098 134.613L125.472 139.241C125.128 139.593 124.718 139.874 124.265 140.066C123.812 140.258 123.325 140.359 122.833 140.362C122.34 140.365 121.853 140.27 121.397 140.083C120.942 139.896 120.528 139.621 120.18 139.273C119.832 138.925 119.557 138.511 119.37 138.056C119.183 137.6 119.088 137.112 119.091 136.62C119.094 136.128 119.194 135.641 119.387 135.188C119.579 134.735 119.86 134.325 120.212 133.981L124.84 129.355L120.212 124.727C119.867 124.381 119.593 123.971 119.406 123.52C119.219 123.069 119.123 122.585 119.123 122.097C119.123 121.609 119.22 121.125 119.407 120.674C119.594 120.223 119.868 119.813 120.213 119.468C120.558 119.122 120.968 118.849 121.419 118.662C121.871 118.475 122.354 118.379 122.843 118.379C123.331 118.379 123.814 118.475 124.266 118.662C124.717 118.849 125.127 119.123 125.472 119.469L130.098 124.095L134.726 119.469C135.424 118.771 136.369 118.38 137.355 118.38C138.341 118.38 139.287 118.771 139.984 119.469C140.682 120.166 141.073 121.111 141.073 122.098C141.073 123.084 140.682 124.029 139.984 124.727L135.358 129.355L139.984 133.981C140.503 134.501 140.856 135.164 140.999 135.885C141.142 136.606 141.068 137.353 140.787 138.031C140.505 138.71 140.029 139.291 139.418 139.699C138.807 140.108 138.089 140.326 137.354 140.327Z" fill="#D5DDEE" stroke="black" stroke-linecap="round" stroke-linejoin="round"/>
</g>
<circle cx="216.257" cy="50.336" r="33.5571" fill="#101010"/>
<path fill-rule="evenodd" clip-rule="evenodd" d="M228.761 41.5602C229.49 42.2882 229.49 43.4686 228.761 44.1967L213.847 59.111C213.119 59.839 211.939 59.839 211.211 59.111L203.754 51.6538C203.026 50.9258 203.026 49.7454 203.754 49.0173C204.482 48.2893 205.662 48.2893 206.39 49.0173L212.529 55.1562L226.125 41.5602C226.853 40.8321 228.033 40.8321 228.761 41.5602Z" fill="white"/>
</svg>
