<svg width="261" height="261" viewBox="0 0 261 261" fill="none" xmlns="http://www.w3.org/2000/svg">
<mask id="mask0_170_8430" style="mask-type:alpha" maskUnits="userSpaceOnUse" x="0" y="0" width="261" height="261">
<circle cx="130.5" cy="130.5" r="130.5" fill="#EFEFFD"/>
</mask>
<g mask="url(#mask0_170_8430)">
<circle cx="130.5" cy="130.5" r="130.5" fill="#F5F5FF"/>
<circle cx="44.7428" cy="55.9284" r="74.5714" fill="#9FD499"/>
<path d="M143.55 147.279H274.05V277.779H143.55V147.279Z" fill="#C5E6C0"/>
<rect x="44.7432" y="72.707" width="169.65" height="192.021" rx="22.3714" fill="white"/>
<rect x="63.386" y="152.872" width="132.364" height="115.586" rx="7.45714" fill="#C5E6C0"/>
<rect x="78.2998" y="167.786" width="39.15" height="7.45714" rx="3.72857" fill="#101010"/>
<rect x="78.2998" y="190.157" width="63.3857" height="7.45714" rx="3.72857" fill="#F8F2F4"/>
<rect x="152.871" y="190.157" width="27.9643" height="7.45714" rx="3.72857" fill="#101010"/>
<rect x="108.129" y="227.443" width="72.7071" height="7.45714" rx="3.72857" fill="#F8F2F4"/>
<rect x="78.2998" y="227.443" width="18.6429" height="7.45714" rx="3.72857" fill="#101010"/>
<rect x="78.2998" y="208.8" width="93.2143" height="7.45714" rx="3.72857" fill="#F8F2F4"/>
</g>
<circle cx="216.257" cy="50.336" r="33.5571" fill="#101010"/>
<path d="M209.356 46.5942H218.835V48.1301H209.356V46.5942Z" fill="#BFBFBF"/>
<path d="M209.356 50.3149H218.835V51.8506H209.356V50.3149Z" fill="#BFBFBF"/>
<path d="M229.112 43.2205C229.112 40.489 226.89 38.2666 224.158 38.2666C222.152 38.2666 220.42 39.4652 219.642 41.1838H205.923C204.235 41.1838 202.862 42.5572 202.862 44.2448V54.0733C202.862 55.7612 204.235 57.1346 205.923 57.1346H206.751V61.531L213.318 57.1346H221.867C223.555 57.1346 224.928 55.7612 224.928 54.0733V48.1144C227.295 47.7431 229.112 45.6899 229.112 43.2205ZM221.867 55.5986H212.851L208.287 58.6544V55.5986H205.923C205.082 55.5986 204.397 54.9145 204.397 54.0733V44.2448C204.397 43.404 205.082 42.7198 205.923 42.7198H219.229C219.213 42.8844 219.204 43.0515 219.204 43.2205C219.204 45.6916 221.023 47.746 223.392 48.1152V54.0733C223.392 54.9145 222.708 55.5986 221.867 55.5986ZM224.158 46.6384C222.273 46.6384 220.74 45.1052 220.74 43.2205C220.74 41.3357 222.273 39.8023 224.158 39.8023C226.043 39.8023 227.576 41.3357 227.576 43.2205C227.576 45.1052 226.043 46.6384 224.158 46.6384Z" fill="#BFBFBF"/>
<path d="M223.39 41.4028H224.926V45.0375H223.39V41.4028Z" fill="#BFBFBF"/>
<path d="M85.0196 126H82.7396L75.8796 115.62V126H73.5996V112.08H75.8796L82.7396 122.44V112.08H85.0196V126ZM92.7937 126.18C91.7537 126.18 90.8137 125.947 89.9737 125.48C89.1337 125 88.4737 124.333 87.9937 123.48C87.5137 122.613 87.2737 121.613 87.2737 120.48C87.2737 119.36 87.5203 118.367 88.0137 117.5C88.507 116.633 89.1803 115.967 90.0337 115.5C90.887 115.033 91.8403 114.8 92.8937 114.8C93.947 114.8 94.9003 115.033 95.7537 115.5C96.607 115.967 97.2803 116.633 97.7737 117.5C98.267 118.367 98.5137 119.36 98.5137 120.48C98.5137 121.6 98.2603 122.593 97.7537 123.46C97.247 124.327 96.5537 125 95.6737 125.48C94.807 125.947 93.847 126.18 92.7937 126.18ZM92.7937 124.2C93.3803 124.2 93.927 124.06 94.4337 123.78C94.9537 123.5 95.3737 123.08 95.6937 122.52C96.0137 121.96 96.1737 121.28 96.1737 120.48C96.1737 119.68 96.0203 119.007 95.7137 118.46C95.407 117.9 95.0003 117.48 94.4937 117.2C93.987 116.92 93.4403 116.78 92.8537 116.78C92.267 116.78 91.7203 116.92 91.2137 117.2C90.7203 117.48 90.327 117.9 90.0337 118.46C89.7403 119.007 89.5937 119.68 89.5937 120.48C89.5937 121.667 89.8937 122.587 90.4937 123.24C91.107 123.88 91.8737 124.2 92.7937 124.2ZM103.428 116.84V122.94C103.428 123.353 103.521 123.653 103.708 123.84C103.908 124.013 104.241 124.1 104.708 124.1H106.108V126H104.308C103.281 126 102.494 125.76 101.948 125.28C101.401 124.8 101.128 124.02 101.128 122.94V116.84H99.8276V114.98H101.128V112.24H103.428V114.98H106.108V116.84H103.428ZM109.369 113.52C108.956 113.52 108.609 113.38 108.329 113.1C108.049 112.82 107.909 112.473 107.909 112.06C107.909 111.647 108.049 111.3 108.329 111.02C108.609 110.74 108.956 110.6 109.369 110.6C109.769 110.6 110.109 110.74 110.389 111.02C110.669 111.3 110.809 111.647 110.809 112.06C110.809 112.473 110.669 112.82 110.389 113.1C110.109 113.38 109.769 113.52 109.369 113.52ZM110.489 114.98V126H108.209V114.98H110.489ZM118.102 116.84H116.062V126H113.762V116.84H112.462V114.98H113.762V114.2C113.762 112.933 114.096 112.013 114.762 111.44C115.442 110.853 116.502 110.56 117.942 110.56V112.46C117.249 112.46 116.762 112.593 116.482 112.86C116.202 113.113 116.062 113.56 116.062 114.2V114.98H118.102V116.84ZM121.283 113.52C120.87 113.52 120.523 113.38 120.243 113.1C119.963 112.82 119.823 112.473 119.823 112.06C119.823 111.647 119.963 111.3 120.243 111.02C120.523 110.74 120.87 110.6 121.283 110.6C121.683 110.6 122.023 110.74 122.303 111.02C122.583 111.3 122.723 111.647 122.723 112.06C122.723 112.473 122.583 112.82 122.303 113.1C122.023 113.38 121.683 113.52 121.283 113.52ZM122.403 114.98V126H120.123V114.98H122.403ZM124.636 120.48C124.636 119.347 124.863 118.353 125.316 117.5C125.783 116.633 126.423 115.967 127.236 115.5C128.05 115.033 128.983 114.8 130.036 114.8C131.37 114.8 132.47 115.12 133.336 115.76C134.216 116.387 134.81 117.287 135.116 118.46H132.656C132.456 117.913 132.136 117.487 131.696 117.18C131.256 116.873 130.703 116.72 130.036 116.72C129.103 116.72 128.356 117.053 127.796 117.72C127.25 118.373 126.976 119.293 126.976 120.48C126.976 121.667 127.25 122.593 127.796 123.26C128.356 123.927 129.103 124.26 130.036 124.26C131.356 124.26 132.23 123.68 132.656 122.52H135.116C134.796 123.64 134.196 124.533 133.316 125.2C132.436 125.853 131.343 126.18 130.036 126.18C128.983 126.18 128.05 125.947 127.236 125.48C126.423 125 125.783 124.333 125.316 123.48C124.863 122.613 124.636 121.613 124.636 120.48ZM136.629 120.44C136.629 119.333 136.855 118.353 137.309 117.5C137.775 116.647 138.402 115.987 139.189 115.52C139.989 115.04 140.869 114.8 141.829 114.8C142.695 114.8 143.449 114.973 144.089 115.32C144.742 115.653 145.262 116.073 145.649 116.58V114.98H147.949V126H145.649V124.36C145.262 124.88 144.735 125.313 144.069 125.66C143.402 126.007 142.642 126.18 141.789 126.18C140.842 126.18 139.975 125.94 139.189 125.46C138.402 124.967 137.775 124.287 137.309 123.42C136.855 122.54 136.629 121.547 136.629 120.44ZM145.649 120.48C145.649 119.72 145.489 119.06 145.169 118.5C144.862 117.94 144.455 117.513 143.949 117.22C143.442 116.927 142.895 116.78 142.309 116.78C141.722 116.78 141.175 116.927 140.669 117.22C140.162 117.5 139.749 117.92 139.429 118.48C139.122 119.027 138.969 119.68 138.969 120.44C138.969 121.2 139.122 121.867 139.429 122.44C139.749 123.013 140.162 123.453 140.669 123.76C141.189 124.053 141.735 124.2 142.309 124.2C142.895 124.2 143.442 124.053 143.949 123.76C144.455 123.467 144.862 123.04 145.169 122.48C145.489 121.907 145.649 121.24 145.649 120.48ZM153.603 116.84V122.94C153.603 123.353 153.697 123.653 153.883 123.84C154.083 124.013 154.417 124.1 154.883 124.1H156.283V126H154.483C153.457 126 152.67 125.76 152.123 125.28C151.577 124.8 151.303 124.02 151.303 122.94V116.84H150.003V114.98H151.303V112.24H153.603V114.98H156.283V116.84H153.603ZM159.545 113.52C159.131 113.52 158.785 113.38 158.505 113.1C158.225 112.82 158.085 112.473 158.085 112.06C158.085 111.647 158.225 111.3 158.505 111.02C158.785 110.74 159.131 110.6 159.545 110.6C159.945 110.6 160.285 110.74 160.565 111.02C160.845 111.3 160.985 111.647 160.985 112.06C160.985 112.473 160.845 112.82 160.565 113.1C160.285 113.38 159.945 113.52 159.545 113.52ZM160.665 114.98V126H158.385V114.98H160.665ZM168.438 126.18C167.398 126.18 166.458 125.947 165.618 125.48C164.778 125 164.118 124.333 163.638 123.48C163.158 122.613 162.918 121.613 162.918 120.48C162.918 119.36 163.165 118.367 163.658 117.5C164.152 116.633 164.825 115.967 165.678 115.5C166.532 115.033 167.485 114.8 168.538 114.8C169.592 114.8 170.545 115.033 171.398 115.5C172.252 115.967 172.925 116.633 173.418 117.5C173.912 118.367 174.158 119.36 174.158 120.48C174.158 121.6 173.905 122.593 173.398 123.46C172.892 124.327 172.198 125 171.318 125.48C170.452 125.947 169.492 126.18 168.438 126.18ZM168.438 124.2C169.025 124.2 169.572 124.06 170.078 123.78C170.598 123.5 171.018 123.08 171.338 122.52C171.658 121.96 171.818 121.28 171.818 120.48C171.818 119.68 171.665 119.007 171.358 118.46C171.052 117.9 170.645 117.48 170.138 117.2C169.632 116.92 169.085 116.78 168.498 116.78C167.912 116.78 167.365 116.92 166.858 117.2C166.365 117.48 165.972 117.9 165.678 118.46C165.385 119.007 165.238 119.68 165.238 120.48C165.238 121.667 165.538 122.587 166.138 123.24C166.752 123.88 167.518 124.2 168.438 124.2ZM181.972 114.8C182.839 114.8 183.612 114.98 184.292 115.34C184.985 115.7 185.525 116.233 185.912 116.94C186.299 117.647 186.492 118.5 186.492 119.5V126H184.232V119.84C184.232 118.853 183.985 118.1 183.492 117.58C182.999 117.047 182.325 116.78 181.472 116.78C180.619 116.78 179.939 117.047 179.432 117.58C178.939 118.1 178.692 118.853 178.692 119.84V126H176.412V114.98H178.692V116.24C179.065 115.787 179.539 115.433 180.112 115.18C180.699 114.927 181.319 114.8 181.972 114.8Z" fill="black"/>
</svg>
