<svg width="49" height="48" viewBox="0 0 49 48" fill="none" xmlns="http://www.w3.org/2000/svg">
<path d="M46.3333 45.5H2.33325C1.51325 45.5 0.833252 44.82 0.833252 44C0.833252 43.18 1.51325 42.5 2.33325 42.5H46.3333C47.1533 42.5 47.8333 43.18 47.8333 44C47.8333 44.82 47.1533 45.5 46.3333 45.5Z" fill="#273766"/>
<path d="M39.8938 45.5201C39.0738 45.5201 38.3938 44.8401 38.3938 44.0201V35.1001C38.3938 34.2801 39.0738 33.6001 39.8938 33.6001C40.7138 33.6001 41.3938 34.2801 41.3938 35.1001V44.0201C41.3938 44.8401 40.7338 45.5201 39.8938 45.5201Z" fill="#273766"/>
<path d="M39.9335 36.5997C36.6735 36.5997 34.0334 33.9597 34.0334 30.6997V26.1598C34.0334 22.8998 36.6735 20.2598 39.9335 20.2598C43.1935 20.2598 45.8335 22.8998 45.8335 26.1598V30.6997C45.8335 33.9597 43.1935 36.5997 39.9335 36.5997ZM39.9335 23.2798C38.3335 23.2798 37.0334 24.5798 37.0334 26.1798V30.7197C37.0334 32.3197 38.3335 33.6198 39.9335 33.6198C41.5335 33.6198 42.8335 32.3197 42.8335 30.7197V26.1798C42.8335 24.5798 41.5335 23.2798 39.9335 23.2798Z" fill="#273766"/>
<path d="M28.9329 45.5C28.1129 45.5 27.4329 44.82 27.4329 44V12.0601C27.4329 8.88006 26.0929 7.52002 22.9729 7.52002H10.5129C7.37294 7.52002 6.01294 8.88006 6.01294 12.0601V44C6.01294 44.82 5.33294 45.5 4.51294 45.5C3.69294 45.5 3.01294 44.82 3.01294 44V12.0601C3.01294 7.20006 5.67294 4.52002 10.5129 4.52002H22.9729C27.7929 4.52002 30.4329 7.20006 30.4329 12.0601V44C30.4329 44.82 29.7529 45.5 28.9329 45.5Z" fill="#273766"/>
<path d="M21.8329 18H11.9329C11.1129 18 10.4329 17.32 10.4329 16.5C10.4329 15.68 11.1129 15 11.9329 15H21.8329C22.6529 15 23.3329 15.68 23.3329 16.5C23.3329 17.32 22.6529 18 21.8329 18Z" fill="#273766"/>
<path d="M21.8329 25.5H11.9329C11.1129 25.5 10.4329 24.82 10.4329 24C10.4329 23.18 11.1129 22.5 11.9329 22.5H21.8329C22.6529 22.5 23.3329 23.18 23.3329 24C23.3329 24.82 22.6529 25.5 21.8329 25.5Z" fill="#273766"/>
<path d="M16.8333 45.5C16.0133 45.5 15.3333 44.82 15.3333 44V36.5C15.3333 35.68 16.0133 35 16.8333 35C17.6533 35 18.3333 35.68 18.3333 36.5V44C18.3333 44.82 17.6533 45.5 16.8333 45.5Z" fill="#273766"/>
</svg>
