<svg width="29" height="20" viewBox="0 0 29 20" fill="none" xmlns="http://www.w3.org/2000/svg">
<path d="M8.54699 0C9.67331 0 10.6591 0.180211 11.5043 0.542436C12.3494 0.902859 13.0451 1.38402 13.5947 1.98413C14.1426 2.58423 14.5552 3.27624 14.8292 4.06377C15.1031 4.85129 15.24 5.67125 15.24 6.52365C15.24 7.50581 15.067 8.46994 14.7192 9.41605C14.3732 10.3622 13.856 11.2146 13.1694 11.9732C12.4828 12.7319 11.634 13.3411 10.623 13.8042C9.61204 14.2673 8.44246 14.498 7.1125 14.498C5.95735 14.498 4.96078 14.325 4.1228 13.9772C3.28481 13.6312 2.5874 13.1644 2.03234 12.5806C1.47549 11.9949 1.06461 11.3173 0.797897 10.5442C0.531184 9.77106 0.397827 8.96552 0.397827 8.12753C0.397827 7.13097 0.578039 6.14881 0.940264 5.18108C1.30069 4.21334 1.82871 3.34653 2.52252 2.58063C3.21633 1.81473 4.06873 1.1948 5.07972 0.717241C6.09071 0.237879 7.24766 0 8.54699 0ZM6.98636 1.94989C6.43671 1.94989 5.96456 2.05801 5.56809 2.27427C5.16983 2.49052 4.84544 2.78427 4.59315 3.1519C4.34085 3.51953 4.15163 3.95023 4.02909 4.44041C3.90654 4.93239 3.84527 5.4514 3.84527 6.00104C3.84527 6.75252 3.957 7.51842 4.18046 8.29693C4.40393 9.07725 4.7229 9.78188 5.13378 10.409C5.54466 11.038 6.04745 11.5498 6.64035 11.948C7.23325 12.3463 7.90363 12.5445 8.65511 12.5445C9.20476 12.5445 9.67691 12.44 10.0734 12.231C10.4698 12.0219 10.7996 11.7372 11.0591 11.3749C11.3186 11.0145 11.5097 10.5946 11.634 10.1189C11.7566 9.64311 11.8178 9.12951 11.8178 8.57987C11.8178 7.82838 11.7061 7.06068 11.4826 6.27316C11.2592 5.48564 10.933 4.772 10.5077 4.12864C10.0806 3.48529 9.57239 2.96268 8.9795 2.5572C8.3884 2.15172 7.72342 1.94989 6.98636 1.94989ZM8.71999 15.0152C9.25342 15.0152 9.74179 15.1197 10.1833 15.3288C10.623 15.5378 11.0537 15.7649 11.4718 16.0118C11.8899 16.2569 12.317 16.4839 12.7495 16.6948C13.182 16.9038 13.6668 17.0084 14.202 17.0084C14.4327 17.0084 14.6634 16.9903 14.8958 16.9543C15.1265 16.9182 15.3644 16.8426 15.6113 16.7272C15.7554 16.6407 15.8924 16.5975 16.0222 16.5975C16.2384 16.5975 16.3465 16.7056 16.3465 16.9219C16.3465 16.9795 16.3285 17.0408 16.2925 17.1057C16.2564 17.1705 16.224 17.239 16.1952 17.3111C15.7176 18.0482 15.1698 18.5708 14.548 18.8826C13.9263 19.1925 13.3136 19.3475 12.7063 19.3475C11.9548 19.3475 11.3258 19.1961 10.8213 18.8934C10.3149 18.5906 9.85712 18.2572 9.44624 17.8968C9.03536 17.5364 8.62988 17.203 8.23342 16.9002C7.83515 16.5975 7.37021 16.4461 6.83678 16.4461C6.64936 16.4461 6.50519 16.4605 6.40427 16.4893C6.30336 16.5182 6.21685 16.5326 6.14477 16.5326C6.05827 16.5326 5.98979 16.5074 5.93933 16.4569C5.88887 16.4065 5.86364 16.3452 5.86364 16.2731C5.86364 16.1578 5.92131 16.0568 6.03664 15.9703C6.45473 15.6387 6.89265 15.3955 7.34678 15.2441C7.79911 15.0909 8.25865 15.0152 8.71999 15.0152Z" fill="#273766"/>
<path d="M23.0846 3.72681C24.0091 3.72681 24.8111 3.86377 25.4887 4.13769C26.168 4.41161 26.7303 4.78104 27.179 5.24238C27.626 5.70553 27.9594 6.23535 28.1756 6.83545C28.3919 7.43556 28.5 8.05188 28.5 8.68803C28.5 9.42509 28.363 10.1586 28.0891 10.8866C27.8152 11.6165 27.3989 12.267 26.8438 12.8365C26.287 13.4078 25.6022 13.8691 24.7858 14.2223C23.9695 14.5755 23.0198 14.7539 21.9367 14.7539C20.9978 14.7539 20.185 14.6206 19.4984 14.3539C18.8118 14.0872 18.2496 13.7285 17.808 13.2816C17.3665 12.8347 17.0421 12.3139 16.8331 11.721C16.6241 11.1281 16.5195 10.5154 16.5195 9.87922C16.5195 9.14216 16.6601 8.40509 16.9412 7.66983C17.2224 6.93277 17.6386 6.27319 18.1865 5.68751C18.7361 5.10182 19.4209 4.62967 20.2445 4.26924C21.0699 3.90702 22.016 3.72681 23.0846 3.72681ZM21.6754 5.39556C21.3438 5.39556 21.0609 5.46765 20.8302 5.61182C20.5995 5.75599 20.4103 5.95062 20.2661 6.1975C20.122 6.44259 20.0174 6.72913 19.9526 7.05351C19.8877 7.37789 19.8552 7.72209 19.8552 8.08252C19.8552 8.63216 19.9417 9.20163 20.1147 9.79452C20.2878 10.3874 20.5292 10.9281 20.841 11.42C21.151 11.912 21.5204 12.3121 21.9457 12.622C22.371 12.932 22.8305 13.087 23.3207 13.087C23.9424 13.087 24.3966 12.8527 24.6849 12.3824C24.9732 11.9138 25.1174 11.3461 25.1174 10.6812C25.1174 10.1171 25.0345 9.52601 24.8687 8.90428C24.7029 8.28255 24.4687 7.71308 24.1641 7.19227C23.8613 6.67146 23.4991 6.24256 23.081 5.90376C22.6647 5.56496 22.1962 5.39556 21.6754 5.39556Z" fill="#273766"/>
</svg>
