<svg width="41" height="42" viewBox="0 0 41 42" fill="none" xmlns="http://www.w3.org/2000/svg">
<g clip-path="url(#clip0_1360_339)">
<path d="M36.75 21C36.75 15.2188 33.625 9.90625 28.625 6.9375C23.5469 4.04688 17.375 4.04688 12.375 6.9375C7.29688 9.90625 4.25 15.2188 4.25 21C4.25 26.8594 7.29688 32.1719 12.375 35.1406C17.375 38.0312 23.5469 38.0312 28.625 35.1406C33.625 32.1719 36.75 26.8594 36.75 21ZM0.5 21C0.5 13.8906 4.25 7.32812 10.5 3.73438C16.6719 0.140624 24.25 0.140624 30.5 3.73438C36.6719 7.32812 40.5 13.8906 40.5 21C40.5 28.1875 36.6719 34.75 30.5 38.3438C24.25 41.9375 16.6719 41.9375 10.5 38.3438C4.25 34.75 0.5 28.1875 0.5 21ZM15.5 18.5V16.625C15.5 16.4688 15.4219 16.3906 15.4219 16.2344C15.1094 16.4688 14.7188 16.625 14.25 16.625C13.1562 16.625 12.375 15.8438 12.375 14.75C12.375 14.2812 12.5312 13.8906 12.7656 13.5781C12.6094 13.5781 12.5312 13.5 12.375 13.5C10.5781 13.5 9.25 14.9062 9.25 16.625V18.5H15.5ZM12.375 11C15.4219 11 18 13.5781 18 16.625V18.5C18 19.9062 16.8281 21 15.5 21H9.25C7.84375 21 6.75 19.9062 6.75 18.5V16.625C6.75 13.5781 9.25 11 12.375 11ZM29.25 16.625C28.1562 16.625 27.375 15.8438 27.375 14.75C27.375 14.3594 27.4531 13.9688 27.6875 13.6562C27.375 13.5781 27.0625 13.5 26.75 13.5C24.6406 13.5 23 15.2188 23 17.25V18.5H30.5V17.25C30.5 16.9375 30.4219 16.625 30.3438 16.3125C30.0312 16.5469 29.6406 16.625 29.25 16.625ZM26.75 11C30.1875 11 33 13.8125 33 17.25V18.6562C33 19.9844 31.9062 21 30.5781 21H22.8438C21.5156 21 20.5 19.9844 20.5 18.6562V17.25C20.5 13.8125 23.2344 11 26.75 11ZM8.3125 25.0625C8.15625 24.2812 8.70312 23.5 9.5625 23.5H31.3594C32.2188 23.5 32.7656 24.2812 32.6094 25.0625C32.2969 26.4688 31.8281 27.7188 31.125 28.8125C28.8594 32.4062 24.9531 34.75 20.5781 34.75H20.5C20.1094 34.75 19.7188 34.75 19.4062 34.75C14.0156 34.2812 9.48438 30.375 8.3125 25.0625ZM28.9375 27.6406C28.3125 27.4062 27.6094 27.25 26.9062 27.25C23.8594 27.25 21.2812 29.4375 20.6562 32.25C24.0938 32.25 27.1406 30.375 28.9375 27.6406Z" fill="#273766"/>
</g>
<defs>
<clipPath id="clip0_1360_339">
<rect width="40" height="42" fill="white" transform="translate(0.5)"/>
</clipPath>
</defs>
</svg>
