<svg width="41" height="40" viewBox="0 0 41 40" fill="none" xmlns="http://www.w3.org/2000/svg">
<g clip-path="url(#clip0_1360_347)">
<path d="M20.5 36.25C29.4062 36.25 36.75 28.9844 36.75 20C36.75 11.0938 29.4062 3.75 20.5 3.75C11.5156 3.75 4.25 11.0938 4.25 20C4.25 21.4062 4.40625 22.7344 4.71875 24.0625C3.625 24.8438 3 26.0938 3 27.5V29.6875C1.35938 26.875 0.5 23.5156 0.5 20C0.5 8.98438 9.40625 0 20.5 0C31.5156 0 40.5 8.98438 40.5 20C40.5 31.0938 31.5156 40 20.5 40C19.6406 40 18.7812 40 18 39.9219C18.3125 39.4531 18.5469 38.9844 18.7812 38.4375L19.5625 36.25C19.875 36.25 20.1875 36.25 20.5 36.25ZM23.8594 23.9062C23.0781 23.75 22.2188 23.75 21.4375 24.0625L19.0156 24.9219L13.9375 23.75C13.2344 23.5938 12.8438 22.8906 13 22.2656C13.1562 21.5625 13.8594 21.1719 14.4844 21.3281L22.0625 23.125C22.7656 23.2812 23.3125 23.5156 23.8594 23.9062ZM11.75 15C11.75 13.6719 12.8438 12.5 14.25 12.5C15.6562 12.5 16.75 13.6719 16.75 15C16.75 16.4062 15.6562 17.5 14.25 17.5C12.8438 17.5 11.75 16.4062 11.75 15ZM26.75 13.75C28.1562 13.75 29.25 14.9219 29.25 16.25C29.25 17.6562 28.1562 18.75 26.75 18.75C25.3438 18.75 24.25 17.6562 24.25 16.25C24.25 14.9219 25.3438 13.75 26.75 13.75ZM17.375 11.3281C15.7344 10 13.4688 9.76562 11.6719 10.7812L11.0469 11.0938C10.5 11.4844 9.71875 11.25 9.40625 10.625C9.01562 10.0781 9.25 9.29688 9.875 8.90625L10.4219 8.59375C13.1562 7.03125 16.5938 7.42188 19.0156 9.45312L20.0312 10.3125C20.5781 10.7812 20.6562 11.5625 20.1875 12.1094C19.7188 12.6562 18.9375 12.6562 18.3906 12.2656L17.375 11.3281ZM9.25 27.5V31.3281L22.2969 26.4062C23.3125 26.0156 24.3281 26.5625 24.7188 27.5C25.1094 28.4375 24.5625 29.5312 23.625 29.9219L18.4688 31.7969C18.4688 31.875 18.4688 31.875 18.4688 31.9531L16.4375 37.5781C15.8906 39.0625 14.4844 40 12.9219 40H9.25C7.14062 40 5.5 38.3594 5.5 36.25V27.5C5.5 26.4844 6.28125 25.625 7.375 25.625C8.39062 25.625 9.25 26.4844 9.25 27.5Z" fill="#273766"/>
</g>
<defs>
<clipPath id="clip0_1360_347">
<rect width="40" height="40" fill="white" transform="translate(0.5)"/>
</clipPath>
</defs>
</svg>
