<svg width="41" height="42" viewBox="0 0 41 42" fill="none" xmlns="http://www.w3.org/2000/svg">
<g clip-path="url(#clip0_1360_343)">
<path d="M36.75 21C36.75 15.2188 33.625 9.90625 28.625 6.9375C23.5469 4.04688 17.375 4.04688 12.375 6.9375C7.29688 9.90625 4.25 15.2188 4.25 21C4.25 26.8594 7.29688 32.1719 12.375 35.1406C17.375 38.0312 23.5469 38.0312 28.625 35.1406C33.625 32.1719 36.75 26.8594 36.75 21ZM0.5 21C0.5 13.8906 4.25 7.32812 10.5 3.73438C16.6719 0.140624 24.25 0.140624 30.5 3.73438C36.6719 7.32812 40.5 13.8906 40.5 21C40.5 28.1875 36.6719 34.75 30.5 38.3438C24.25 41.9375 16.6719 41.9375 10.5 38.3438C4.25 34.75 0.5 28.1875 0.5 21ZM23.4688 31.7031C22.9219 31.0781 21.9062 30.375 20.5 30.375C19.0156 30.375 18 31.0781 17.4531 31.7031C16.75 32.4844 15.5781 32.4844 14.7969 31.7812C14.0156 31.0781 14.0156 29.9062 14.7188 29.125C15.8125 27.9531 17.7656 26.625 20.5 26.625C23.1562 26.625 25.1094 27.9531 26.2031 29.125C26.9062 29.9062 26.9062 31.0781 26.125 31.7812C25.3438 32.4844 24.1719 32.4062 23.4688 31.7031ZM9.25 16H14.25C15.5781 16 16.75 17.1719 16.75 18.5C16.75 19.9062 15.5781 21 14.25 21C12.8438 21 11.75 19.9062 11.75 18.5H9.25C8.54688 18.5 8 17.9531 8 17.25C8 16.625 8.54688 16 9.25 16ZM23 17.25C23 16.625 23.5469 16 24.25 16H29.25C30.5781 16 31.75 17.1719 31.75 18.5C31.75 19.9062 30.5781 21 29.25 21C27.8438 21 26.75 19.9062 26.75 18.5H24.25C23.5469 18.5 23 17.9531 23 17.25Z" fill="#273766"/>
</g>
<defs>
<clipPath id="clip0_1360_343">
<rect width="40" height="42" fill="white" transform="translate(0.5)"/>
</clipPath>
</defs>
</svg>
