<svg width="261" height="261" viewBox="0 0 261 261" fill="none" xmlns="http://www.w3.org/2000/svg">
<mask id="mask0_51_1999" style="mask-type:alpha" maskUnits="userSpaceOnUse" x="0" y="0" width="261" height="261">
<circle cx="130.5" cy="130.5" r="130.5" fill="#EFEFFD"/>
</mask>
<g mask="url(#mask0_51_1999)">
<circle cx="130.5" cy="130.5" r="130.5" fill="#F5F5FF"/>
<circle cx="44.7427" cy="55.9285" r="74.5714" fill="#D5DDEE"/>
<path d="M143.55 147.279H274.05V277.779H143.55V147.279Z" fill="#D5DDEE"/>
<rect x="44.7431" y="72.7071" width="169.65" height="192.021" rx="22.3714" fill="white"/>
<rect x="63.3859" y="152.871" width="132.364" height="115.586" rx="7.45714" fill="#D5DDEE"/>
<mask id="mask1_51_1999" style="mask-type:alpha" maskUnits="userSpaceOnUse" x="108" y="93" width="45" height="45">
<circle cx="130.5" cy="115.586" r="22.3714" fill="#AEAFF7"/>
</mask>
<g mask="url(#mask1_51_1999)">
<circle cx="130.5" cy="115.586" r="22.3714" fill="#D5DDEE"/>
<path d="M130.5 116.704C134.471 116.704 137.691 113.533 137.691 109.62C137.691 105.707 134.471 102.536 130.5 102.536C126.528 102.536 123.309 105.707 123.309 109.62C123.309 113.533 126.528 116.704 130.5 116.704Z" fill="#101010"/>
<path d="M113.721 137.957C113.721 128.828 121.233 121.427 130.5 121.427C139.766 121.427 147.278 128.828 147.278 137.957H113.721Z" fill="#101010"/>
</g>
<rect x="78.2998" y="167.786" width="39.15" height="7.45714" rx="3.72857" fill="#101010"/>
<rect x="78.2998" y="190.157" width="63.3857" height="7.45714" rx="3.72857" fill="#F8F2F4"/>
<rect x="152.871" y="190.157" width="27.9643" height="7.45714" rx="3.72857" fill="#101010"/>
<rect x="108.129" y="227.443" width="72.7071" height="7.45714" rx="3.72857" fill="#F8F2F4"/>
<rect x="78.2998" y="227.443" width="18.6429" height="7.45714" rx="3.72857" fill="#101010"/>
<rect x="78.2998" y="208.8" width="93.2143" height="7.45714" rx="3.72857" fill="#F8F2F4"/>
</g>
<circle cx="216.257" cy="50.3358" r="33.5571" fill="#101010"/>
<path fill-rule="evenodd" clip-rule="evenodd" d="M228.761 41.5603C229.489 42.2883 229.489 43.4687 228.761 44.1968L213.847 59.1111C213.119 59.8391 211.938 59.8391 211.21 59.1111L203.753 51.6539C203.025 50.9259 203.025 49.7455 203.753 49.0174C204.481 48.2894 205.661 48.2894 206.39 49.0174L212.528 55.1563L226.124 41.5603C226.853 40.8322 228.033 40.8322 228.761 41.5603Z" fill="white"/>
</svg>
