<svg width="23" height="22" viewBox="0 0 23 22" fill="none" xmlns="http://www.w3.org/2000/svg">
<path fill-rule="evenodd" clip-rule="evenodd" d="M20.5481 9.39786L18.6886 14.9763C17.3776 18.9095 16.722 20.8761 15.7607 21.4349C14.8462 21.9666 13.7168 21.9666 12.8023 21.4349C11.841 20.8761 11.1855 18.9095 9.87443 14.9763C9.66392 14.3448 9.55866 14.029 9.38197 13.7651C9.21073 13.5093 8.991 13.2896 8.73522 13.1183C8.47128 12.9416 8.15552 12.8364 7.52398 12.6259C3.5908 11.3148 1.6242 10.6593 1.06536 9.69798C0.533716 8.78349 0.533716 7.65404 1.06536 6.73956C1.62421 5.77827 3.5908 5.12274 7.52398 3.81167L13.1024 1.95219C17.9757 0.327775 20.4123 -0.484432 21.6985 0.801775C22.9847 2.08798 22.1725 4.52461 20.5481 9.39786ZM12.6328 9.81102C12.3172 9.49196 12.3201 8.97752 12.6392 8.66199L17.2006 4.15086C17.5196 3.83532 18.034 3.83818 18.3496 4.15723C18.6651 4.47628 18.6623 4.99072 18.3432 5.30626L13.7818 9.81739C13.4628 10.1329 12.9483 10.1301 12.6328 9.81102Z" fill="white"/>
</svg>
