<svg width="215" height="190" viewBox="0 0 215 190" fill="none" xmlns="http://www.w3.org/2000/svg">
<path d="M133.083 136.147C133.083 135.908 132.847 135.549 132.493 135.67C129.89 136.745 127.288 137.701 124.684 138.776C124.566 138.895 124.448 139.014 124.448 139.134C124.675 141.314 124.466 143.605 124.554 145.795C124.313 146.183 124.559 146.856 125.039 146.661C127.182 145.875 130.366 144.688 132.373 143.675C132.728 143.436 133.083 142.957 133.083 142.48C133.301 141.165 133.193 137.475 133.083 136.147ZM132.255 141.762C132.255 142.889 131.992 142.732 131.545 142.957C129.529 143.815 127.514 144.575 125.498 145.327C125.631 143.294 125.489 140.942 125.507 139.482C127.804 138.626 130.016 137.684 132.309 136.824C132.513 140.029 132.255 140.78 132.255 141.762Z" fill="black"/>
<path d="M126.921 141.106C127.632 140.887 131.046 139.683 131.472 139.252C131.671 139.051 131.505 138.536 131.228 138.536C130.363 138.536 127.436 140.065 126.665 140.584C126.413 140.754 126.499 141.236 126.92 141.106H126.921Z" fill="black"/>
<path d="M127.457 142.96C128.311 142.698 130.319 142.087 131.067 141.607C131.635 141.244 131.222 140.721 130.783 140.831C129.864 141.061 127.607 142.139 127.143 142.432C126.476 142.855 126.543 143.239 127.457 142.96Z" fill="black"/>
<path d="M116.285 139.851C116.285 139.612 116.166 139.493 115.93 139.493C114.829 139.493 113.716 139.645 113.508 139.702C112.989 139.844 112.617 140.168 112.617 140.791C112.617 143.836 112.267 143.72 115.93 143.436C116.166 143.436 116.403 143.197 116.403 142.958C116.403 141.882 116.285 140.926 116.285 139.851ZM113.682 142.838C113.682 142.838 113.682 140.787 113.663 140.657C113.916 140.655 115.693 140.568 115.693 140.568C115.693 141.344 115.682 142.069 115.621 142.839H113.682V142.838Z" fill="black"/>
<path d="M116.522 144.989C116.522 144.869 116.286 144.75 116.168 144.75C115.148 144.635 114.235 144.741 113.328 145.066C112.996 144.847 112.618 145.163 112.618 145.467L112.5 147.259C112.5 147.958 112.257 149.493 113.92 148.932L116.522 148.573C116.758 148.454 116.877 148.335 116.877 148.096C116.877 147.02 116.758 145.945 116.522 144.989ZM113.565 148.215V145.538C114.279 145.479 115.035 145.484 115.741 145.553C115.902 146.312 115.92 147.076 115.853 147.906L113.565 148.215Z" fill="black"/>
<path fill-rule="evenodd" clip-rule="evenodd" d="M137.767 97.5142C138 97.4005 138.267 97.2697 138.526 97.7904L138.529 97.7893C141.12 108.59 141.212 124.74 140.303 135.906C140.303 137.938 140.067 140.088 139.475 142.119C138.65 144.141 136.654 145.215 134.886 146.168L134.861 146.181C130.885 148.352 126.714 150.324 122.525 152.012C122.449 152.247 122.244 152.395 121.966 152.395C111.504 153.408 102.018 154.018 92.8152 154.155C93.124 153.626 93.2283 153.139 93.1583 152.726C101.827 152.603 111.62 152.19 121.472 151.259C121.448 150.571 121.424 149.887 121.401 149.201C121 137.641 120.6 126.145 121.579 105.572C119.308 105.626 107.319 105.651 94.0493 105.681C81.6206 105.708 68.0679 105.738 60.3235 105.794C60.2846 105.982 60.2465 106.164 60.2094 106.342C59.1528 111.409 58.7904 113.147 58.7904 124.317C58.7904 125.145 58.7872 125.975 58.7839 126.805C58.7703 130.254 58.7567 133.722 58.9762 137.167C58.5404 137.263 58.1304 137.379 57.7429 137.509C57.4158 132.849 57.5028 128.069 57.5819 123.732C57.5915 123.203 57.601 122.68 57.6097 122.165C57.9834 112.337 58.1623 109.101 59.4433 105.14C59.5615 104.776 59.7495 104.489 60.1288 104.48C64.4669 102.628 68.9165 101.291 73.4617 100.06C81.6299 97.9246 90.1101 97.8393 98.5227 97.7541C100.466 97.7347 102.406 97.7143 104.337 97.6699C109.276 97.5665 114.202 97.6119 119.127 97.6574C125.325 97.7143 131.52 97.7711 137.733 97.5312L137.767 97.5142ZM79.7763 154.021C76.3493 153.895 72.9153 153.7 69.4372 153.427C69.183 153.328 68.9463 153.224 68.7285 153.113C68.3827 152.938 68.0314 152.648 67.7676 152.265C71.577 152.49 77.5143 152.716 84.73 152.76L82.9248 153.233C81.87 153.575 80.8142 153.834 79.7763 154.021ZM139.473 132.919C139.827 128.738 139.827 124.435 139.827 120.134H139.828C139.944 112.799 139.272 105.576 137.814 98.4669C133.957 100.019 130.755 101.497 128.102 102.721C125.999 103.69 124.243 104.501 122.778 105.063C122.164 114.232 121.797 131.341 122.513 150.662C127.037 148.779 131.412 146.537 135.687 144.271C136.624 143.775 137.58 143.076 138.171 142.24C138.645 141.164 139 140.089 139 138.894C139.236 136.981 139.354 134.951 139.473 132.919Z" fill="#D5DDEE"/>
<path fill-rule="evenodd" clip-rule="evenodd" d="M174.651 38.6063C184.139 30.4446 199.834 18.1561 206.29 14.1713C211.732 24.3277 213.742 47.9864 213.388 55.5139C208.423 58.6002 195.363 63.8667 187.028 67.2279C185.037 68.0308 183.316 68.725 182.038 69.2548C181.566 69.4936 181.092 69.6129 180.737 69.6129C180.146 69.6129 179.554 69.4936 179.081 69.2548C179.049 69.2422 179.016 69.2293 178.985 69.2165C177.666 70.0038 176.302 70.7105 174.874 71.3184C177.607 92.1913 185.152 107.23 194.009 107.23C205.164 107.23 214.238 83.3777 214.238 54.0575C214.238 24.7373 205.163 0.885742 194.009 0.885742C184.899 0.885742 177.175 16.799 174.651 38.6063ZM206.29 14.1713C206.291 14.1711 206.291 14.171 206.291 14.1707L206.29 14.1713Z" fill="#D5DDEE"/>
<path fill-rule="evenodd" clip-rule="evenodd" d="M43.7549 136.559C43.3631 109.252 33.7731 87.396 22.0001 87.396C9.97839 87.396 0.23291 110.186 0.23291 138.297C0.23291 166.409 9.97839 189.199 22.0001 189.199C30.5039 189.199 37.8688 177.795 41.4509 161.171C40.49 161.319 39.5226 161.434 38.5521 161.521C38.6694 161.753 38.7911 161.978 38.917 162.196C34.7412 162.708 28.7618 163.846 22.6994 165.001C16.0531 166.267 9.30673 167.55 4.72863 168.051C1.88982 159.567 1.25497 150.124 0.824985 141.285C0.52332 135.07 0.824986 128.859 1.88982 122.765C8.22817 124.162 18.4256 127.645 27.5354 130.757C33.2173 132.698 38.4761 134.494 42.1115 135.549C41.9024 135.698 41.6993 135.857 41.5023 136.025C42.254 136.203 43.0204 136.386 43.7549 136.559ZM43.731 141.265C43.3748 142.131 43.122 143.076 42.94 144.033V144.034C42.2513 147.658 41.89 151.355 42.6056 154.746C43.2284 150.479 43.6156 145.957 43.731 141.265Z" fill="#D5DDEE"/>
<path d="M40.5704 159.126C41.194 159.126 41.6994 158.616 41.6994 157.986C41.6994 157.356 41.194 156.846 40.5704 156.846C39.9469 156.846 39.4414 157.356 39.4414 157.986C39.4414 158.616 39.9469 159.126 40.5704 159.126Z" fill="black"/>
<path fill-rule="evenodd" clip-rule="evenodd" d="M42.6279 135.768C44.3637 136.266 46.0318 136.685 47.79 137.102L47.7889 137.101C48.3776 137.399 48.1131 137.893 47.7889 138.057C45.7774 138.415 44.5955 140.207 44.0035 142.119C42.2542 148.124 41.7117 155.24 45.541 160.162C45.6198 160.162 45.6592 160.202 45.6592 160.281C45.6592 160.52 45.541 160.759 45.3047 160.878C43.6782 161.289 41.2851 161.758 39.2714 162.129C39.2714 162.61 39.0293 162.671 38.9168 162.671C35.937 162.988 29.2915 164.232 22.5565 165.493C15.438 166.826 8.21959 168.177 5.12347 168.473C4.84544 168.642 4.39857 168.603 4.25561 168.168C0.714418 157.041 -1.21602 136.71 1.4168 122.524C1.53499 122.285 1.89069 122.047 2.12707 122.166C8.44629 123.554 16.3113 126.259 24.6609 129.13C30.442 131.118 36.4553 133.186 42.3488 134.952C42.467 134.952 42.5852 135.071 42.7034 135.191C42.7912 135.366 42.7495 135.606 42.6279 135.768ZM44.3479 160.226C41.9267 156.726 41.4303 152.245 41.8749 147.975L41.8738 147.974L41.8787 147.934C42.2974 144.557 42.9087 139.626 46.1309 137.781C45.8633 137.718 45.5943 137.657 45.3239 137.594C44.0896 137.309 42.8272 137.018 41.5474 136.69C35.9868 141.896 35.4386 153.834 38.9359 161.271C40.7403 161.002 42.5435 160.668 44.3479 160.226ZM22.6992 165.001C16.0527 166.266 9.30649 167.55 4.72839 168.05C1.88958 159.566 1.25473 150.123 0.82474 141.285C0.523074 135.069 0.82474 128.858 1.88958 122.764C8.22792 124.161 18.4254 127.645 27.5352 130.757C33.2171 132.697 38.4759 134.494 42.1113 135.549C35.2495 140.448 34.895 155.264 38.9168 162.195C34.741 162.708 28.7616 163.846 22.6992 165.001Z" fill="black"/>
<path fill-rule="evenodd" clip-rule="evenodd" d="M49.8514 140.236C49.5329 138.914 48.9577 137.81 47.863 137.177C45.0557 138.457 42.3936 140.374 42.2889 149.229C42.2749 150.429 42.3124 151.579 42.4298 152.696C41.8764 146.813 43.6084 140.435 45.3833 138.981C47.6856 139.625 49.0277 140.008 49.8514 140.236ZM44.3582 159.202C44.4904 159.196 44.6579 159.174 44.8615 159.147C45.4371 159.072 46.3022 158.958 47.4831 159.043C46.8676 159.958 46.1383 160.63 45.3056 160.784C44.9527 160.255 44.6381 159.729 44.3582 159.202Z" fill="black"/>
<path d="M89.2003 151.12L82.7865 152.8C77.2372 154.603 71.59 154.051 68.9302 152.707C66.7071 151.583 67.6672 147.475 72.3959 147.475C75.362 147.475 78.3719 147.232 81.366 146.747C82.7303 146.44 84.4434 145.85 84.852 144.774C84.9781 144.442 85.0344 143.916 84.6123 143.322C84.2138 142.652 83.696 142.25 83.0409 141.853C80.2471 140.135 77.4725 139.991 74.1711 139.755C72.8969 139.755 71.5585 139.387 70.4903 138.74C67.8867 137.237 64.825 136.409 61.868 136.409C56.2377 136.409 53.6094 139.547 51.6936 140.113C50.8741 140.113 51.4369 140.174 45.5038 138.545C45.3642 138.507 45.2134 138.539 45.1008 138.631C42.3127 140.916 40.0806 152.934 43.9685 159.44C44.4592 160.27 46.5394 158.286 52.3926 160.808C58.785 163.56 65.067 164.955 73.2627 164.083C80.2753 163.483 86.9479 160.678 92.2338 155.587C95.0895 152.838 93.3043 150.084 89.2003 151.121V151.12ZM91.6136 154.927C86.4887 159.865 80.0006 162.591 73.1783 163.176C62.7685 164.282 55.9991 161.369 52.746 159.97C49.3928 158.528 47.1832 158.391 44.5977 158.725C41.0869 152.472 43.3302 141.706 45.5038 139.489C51.1735 141.073 50.7469 141.041 51.8028 141.009C52.316 140.881 52.7111 140.737 53.113 140.478C56.2287 138.462 58.3719 137.319 61.868 137.319C64.6708 137.319 67.5738 138.103 70.0355 139.524C71.7994 140.594 73.301 140.602 74.6348 140.7C77.5603 140.914 80.0862 141.101 82.5749 142.63C83.131 142.968 83.5362 143.28 83.8593 143.82C85.4903 146.124 75.3563 146.566 72.3959 146.566C68.3899 146.566 65.2629 147.831 63.6634 151.682C63.4338 152.235 64.2645 152.588 64.493 152.034C65.3192 150.044 66.6125 148.917 67.9441 148.29C66.1679 150.455 66.8118 152.656 68.5272 153.522C71.3716 154.959 77.262 155.552 83.0375 153.675L89.4221 152.003C92.3768 151.255 93.9178 152.708 91.6125 154.93L91.6136 154.927Z" fill="black"/>
<path fill-rule="evenodd" clip-rule="evenodd" d="M167.865 71.3837C168.274 71.1177 168.692 70.8505 169.115 70.5844H169.119C169.434 70.7675 169.756 70.9426 170.084 71.1086C169.059 71.7396 168.036 72.3842 167.04 73.0561C165.975 73.6541 165.029 74.4898 164.319 75.4459C163.964 76.2827 163.491 77.1184 163.018 77.8358C160.615 80.4829 158.332 81.3386 155.307 82.4727C154.436 82.7995 153.504 83.1492 152.489 83.5716C148.133 85.3828 146.043 86.8822 143.498 88.7083C142.255 89.6012 140.901 90.5723 139.121 91.696C138.529 92.1747 137.82 92.4134 137.109 92.5328C135.454 92.7716 134.862 91.2185 135.454 89.7849C136.003 88.6752 136.657 87.6713 137.414 86.7368C135.494 88.3523 134.48 89.4919 133.742 90.3218C132.829 91.3473 132.337 91.9 131.076 92.294C130.253 92.551 129.301 92.1747 128.946 91.3379C128.094 89.3279 130.18 86.2342 131.986 84.1501C131.997 84.1564 132.009 84.1625 132.021 84.1684C132.611 84.4066 133.318 84.2884 133.791 83.9323C132.288 85.4268 131.168 87.0873 130.247 88.9492C129.773 89.786 129.3 91.339 130.483 91.6972C131.421 91.982 132.135 91.14 132.744 90.4213C132.904 90.2335 133.056 90.0541 133.204 89.9054C135.271 87.5565 137.652 85.5248 140.254 83.8092C141.069 83.1156 141.943 82.4949 142.856 81.948C143.524 81.5478 144.416 82.3914 143.733 82.7359C141.957 83.8114 140.42 85.1257 139 86.5594C138.915 86.6893 138.724 86.9215 138.479 87.2189C137.376 88.5607 135.182 91.2293 136.634 91.8165C137.287 92.146 138.141 91.5652 138.826 91.0983C138.886 91.0578 138.943 91.018 139 90.9798C141.604 89.2262 142.759 88.3588 143.591 87.7338C144.277 87.2178 144.743 86.8672 145.625 86.3195C150.279 83.5338 152.9 82.5656 155.051 81.771C156.962 81.0651 158.502 80.496 160.768 78.9113C162.383 77.7464 162.799 76.7757 163.223 75.7877C163.371 75.4403 163.521 75.0907 163.725 74.7297C164.396 73.5376 165.667 72.7549 166.866 72.0164C167.211 71.8047 167.548 71.5966 167.865 71.3837ZM131.494 83.2715C129.747 84.8457 128.108 86.6526 126.58 88.7105C126.23 89.3011 125.879 89.7742 125.529 90.2459L125.516 90.2635C124.805 90.8604 124.096 89.9054 124.096 89.188C124.096 88.3512 124.214 87.6349 124.569 86.9175C125.516 84.5277 126.699 82.3766 128.354 80.4655C130.129 78.3144 132.258 76.2839 134.506 74.6103C134.979 74.2522 134.506 73.5348 134.033 73.8929C130.377 76.036 127.058 78.7874 124.451 82.2573C124.396 82.3318 124.32 82.4474 124.228 82.5869C123.735 83.34 122.784 84.7926 122.085 84.2889C121.717 84.0104 121.779 83.298 121.824 82.7699C121.837 82.6189 121.848 82.4831 121.848 82.3766C121.967 81.6592 122.203 81.0624 122.559 80.4643C126.903 71.685 137.027 63.025 147.875 61.8244C149.058 61.705 150.359 61.5857 151.542 61.705C152.725 61.9438 153.908 61.9438 155.091 61.705C156.274 61.107 157.339 60.3908 158.286 59.554C158.835 59.1652 159.384 58.7513 159.934 58.3352C159.857 58.0407 159.788 57.7429 159.724 57.4438C158.401 58.326 157.524 58.9731 156.861 59.4619C155.848 60.2091 155.335 60.5864 154.499 60.8683C153.316 60.9876 152.015 60.8683 150.832 60.7489C142.265 60.7489 132.283 65.2159 124.569 75.3266C123.182 77.1445 121.848 79.15 121.02 81.4205C120.547 82.3766 120.547 83.5716 120.902 84.6471C121.138 85.3645 121.966 85.7226 122.676 85.3645C122.676 85.3645 122.794 85.3645 122.794 85.2451C123.566 84.8986 124.101 84.1199 124.598 83.3929C124.787 83.118 124.971 82.8505 125.16 82.6165C125.814 81.8082 126.497 81.0396 127.165 80.3018C125.628 82.2618 124.361 84.4197 123.504 86.7981C123.031 87.9931 122.557 89.5461 123.386 90.6216C123.859 91.4584 125.042 91.6972 125.752 91.0991C125.752 91.0991 125.87 91.0991 125.87 90.9798C126.343 90.6216 126.699 90.143 126.935 89.5461C126.994 89.472 127.052 89.3976 127.112 89.3229C128.437 87.6496 129.867 85.8407 131.835 84.0427C131.625 83.8575 131.524 83.5831 131.494 83.2715Z" fill="black"/>
<path d="M162.66 70.5474C161.37 71.1693 160.175 72.1004 158.756 72.5791C155.448 74.0969 150.493 74.6153 145.861 73.0566C145.625 73.0566 145.388 73.0566 145.27 73.2953C143.002 76.4037 139.424 79.9691 136.042 82.0178C135.45 82.376 132.729 84.527 132.375 83.0934C132.375 82.4965 132.375 82.0178 132.611 81.4209C135.235 73.4613 139.587 68.535 146.1 63.8361C146.554 63.3768 145.688 63.1949 145.506 63.3779C139.212 66.5568 134.048 73.3658 131.784 80.226C131.429 81.3016 130.837 82.7352 131.311 83.9301C131.902 85.3638 133.441 84.8863 134.506 84.2883C138.472 81.9507 142.193 79.1516 145.841 74.3549C152.44 76.3571 159.815 74.5073 163.253 71.383C163.717 71.1488 163.213 70.2802 162.662 70.5462L162.66 70.5474Z" fill="black"/>
<path d="M213.174 40.7955C212.582 34.4628 211.4 28.2483 209.743 22.1544C209.033 19.2871 207.85 16.4198 206.548 13.79C206.43 13.5513 206.076 13.4319 205.838 13.6707C190.991 23.5619 169.993 41.481 166.207 45.8127C165.428 46.7132 164.859 47.8239 164.597 49.0473C163.733 49.7806 162.881 50.5241 162.066 51.3086C160.067 53.2334 159.617 53.3687 159.109 54.6546C158.8 58.1017 160.996 64.4833 165.852 68.6342C166.798 69.471 167.863 70.1873 168.928 70.9047C170.111 71.7414 171.412 72.219 172.832 72.4577C173.66 72.3383 174.487 72.0996 175.198 71.7403C176.026 71.3822 176.853 71.0229 177.682 70.5454C179.428 69.6643 178.779 69.7882 179.574 69.9485C181.23 70.3066 183.002 69.2232 184.424 68.6342C203.896 60.5677 206.505 59.5775 211.515 56.6851C212.079 56.3429 212.644 56.1098 213.105 55.7779C213.406 56.0416 213.999 55.9063 213.999 55.3708C214.117 50.4718 213.881 45.5728 213.17 40.7932L213.174 40.7955ZM174.253 71.1457C173.537 71.4913 172.716 71.5038 172.005 71.2651C171.413 71.0263 170.704 70.7876 170.112 70.4283C169.047 69.8303 168.087 69.2516 167.155 68.516C163.31 65.4838 160.885 61.1078 160.175 56.3281C159.939 55.4914 160.057 54.5363 160.648 53.8189L162.422 52.026C163.143 51.4189 163.833 50.7799 164.494 50.1114C164.241 55.3902 166.921 61.7706 172.715 66.2455C173.877 67.1585 176.247 68.6842 177.869 69.3891C176.663 70.0372 175.448 70.5693 174.253 71.1446V71.1457ZM212.939 55.3345C207.762 58.1222 198.307 62.1287 193.062 64.2161C181.187 68.9287 182.019 68.8366 180.759 68.9958C180.049 68.8764 179.34 68.757 178.748 68.3989C178.156 68.1601 177.447 67.8009 176.855 67.4427C174.607 66.2478 172.478 64.5754 170.703 62.6631C168.81 60.6314 167.509 58.361 166.563 55.7324C165.735 53.3426 164.907 49.9966 166.208 47.6079C167.037 46.1743 168.102 44.86 169.403 43.7844C173.381 39.7654 194.403 22.45 205.13 15.226C205.415 15.0827 205.7 14.8951 205.959 14.7166C211.07 24.5465 213.345 47.3623 212.94 55.3356L212.939 55.3345Z" fill="black"/>
<path d="M162.705 56.8607C163.328 56.8607 163.834 56.3502 163.834 55.7204C163.834 55.0907 163.328 54.5801 162.705 54.5801C162.081 54.5801 161.576 55.0907 161.576 55.7204C161.576 56.3502 162.081 56.8607 162.705 56.8607Z" fill="black"/>
<path d="M123.525 59.745L120.867 52.4141C120.76 52.1197 120.911 51.7934 121.202 51.6842C121.494 51.5785 121.817 51.7286 121.925 52.023L124.583 59.3539C124.69 59.6484 124.539 59.9747 124.247 60.0838C123.953 60.1918 123.631 60.0384 123.525 59.745Z" fill="black"/>
<path d="M113.056 67.2709L106.679 60.505C106.466 60.2776 106.474 59.9172 106.7 59.7012C106.925 59.4863 107.281 59.4943 107.496 59.7217L113.872 66.4875C114.086 66.7149 114.078 67.0753 113.852 67.2913C113.627 67.5073 113.272 67.4994 113.056 67.2709Z" fill="black"/>
<path d="M106.801 78.1838L98.6688 76.5921C98.3638 76.533 98.1646 76.234 98.2231 75.9259C98.2816 75.6177 98.5777 75.4165 98.8827 75.4756L107.015 77.0673C107.32 77.1265 107.52 77.4255 107.461 77.7336C107.401 78.0462 107.102 78.2429 106.801 78.1838Z" fill="black"/>
</svg>
