<svg width="20" height="19" viewBox="0 0 20 19" fill="none" xmlns="http://www.w3.org/2000/svg">
<path d="M18.9805 4.40625C20.0352 6.05859 19.1212 8.34375 17.1525 8.625C17.0118 8.625 16.8712 8.625 16.7305 8.625C15.8164 8.625 15.0079 8.23829 14.4454 7.60546C13.8829 8.23829 13.0743 8.625 12.1603 8.625C11.2462 8.625 10.4024 8.23829 9.83993 7.60546C9.31259 8.23829 8.46884 8.625 7.55477 8.625C6.64072 8.625 5.83213 8.23829 5.26963 7.60546C4.70713 8.23829 3.89852 8.625 2.98447 8.625C2.84384 8.625 2.70322 8.625 2.56259 8.625C0.593841 8.34375 -0.32023 6.05859 0.734465 4.40625L2.73838 1.24218C2.91416 0.925785 3.23056 0.75 3.58213 0.75H16.1329C16.4844 0.75 16.8009 0.925785 16.9767 1.24218L18.9805 4.40625ZM17.293 9.71484C17.4688 9.71484 17.6094 9.67968 17.7501 9.64454V14.25V16.5C17.7501 17.7657 16.7305 18.75 15.5001 18.75H4.25009C2.98447 18.75 2.00009 17.7657 2.00009 16.5V14.25V9.64454C2.10556 9.67968 2.24618 9.71484 2.42197 9.71484C2.59775 9.75 2.77352 9.75 2.98447 9.75C3.40634 9.75 3.82822 9.71484 4.25009 9.57421V14.25H15.5001V9.57421C15.8868 9.71484 16.3087 9.75 16.7305 9.75C16.9063 9.75 17.1172 9.75 17.293 9.71484Z" fill="#D5DDEE"/>
</svg>
