<svg width="14" height="14" viewBox="0 0 14 14" fill="none" xmlns="http://www.w3.org/2000/svg">
<g clip-path="url(#clip0_232_2059)">
<path d="M12.8243 6.25517L10.3579 8.40767L11.0967 11.6124C11.1358 11.7799 11.1246 11.9552 11.0646 12.1165C11.0046 12.2777 10.8984 12.4176 10.7593 12.5188C10.6202 12.62 10.4543 12.678 10.2824 12.6854C10.1105 12.6928 9.9403 12.6494 9.79295 12.5606L6.99787 10.8653L4.20881 12.5606C4.06147 12.6494 3.89122 12.6928 3.71934 12.6854C3.54747 12.678 3.3816 12.62 3.24248 12.5188C3.10336 12.4176 2.99715 12.2777 2.93713 12.1165C2.87712 11.9552 2.86596 11.7799 2.90506 11.6124L3.6428 8.41095L1.17584 6.25517C1.04536 6.14264 0.951012 5.99408 0.904623 5.82814C0.858233 5.6622 0.86187 5.48625 0.915077 5.32237C0.968284 5.15849 1.06869 5.01396 1.20371 4.90691C1.33873 4.79987 1.50235 4.73507 1.67405 4.72064L4.92576 4.439L6.19506 1.4115C6.26135 1.25264 6.37315 1.11694 6.5164 1.0215C6.65964 0.926051 6.82793 0.875122 7.00006 0.875122C7.17219 0.875122 7.34048 0.926051 7.48373 1.0215C7.62697 1.11694 7.73878 1.25264 7.80506 1.4115L9.07819 4.439L12.3288 4.72064C12.5005 4.73507 12.6641 4.79987 12.7991 4.90691C12.9342 5.01396 13.0346 5.15849 13.0878 5.32237C13.141 5.48625 13.1446 5.6622 13.0982 5.82814C13.0518 5.99408 12.9575 6.14264 12.827 6.25517H12.8243Z" fill="#273766"/>
</g>
<defs>
<clipPath id="clip0_232_2059">
<rect width="14" height="14" fill="white"/>
</clipPath>
</defs>
</svg>
