<svg width="126" height="143" viewBox="0 0 126 143" fill="none" xmlns="http://www.w3.org/2000/svg">
<path fill-rule="evenodd" clip-rule="evenodd" d="M77.4066 120.464C95.9279 134.187 117.082 144.201 138.041 142.217C145.74 141.486 152.867 138.437 160.18 135.402C160.823 135.135 161.141 134.363 160.889 133.681C160.639 133 159.912 132.659 159.272 132.926C152.18 135.87 145.281 138.862 137.822 139.568C117.178 141.525 96.387 131.433 78.2075 117.819C78.2688 117.622 78.3325 117.425 78.3963 117.229C79.7992 112.905 78.909 106.6 76.6158 99.975C73.2896 90.3577 67.0887 80.0239 61.5126 74.316C58.9414 71.6816 56.4518 70.0272 54.4189 69.6795C52.7251 69.3879 51.2712 69.8797 50.1488 71.2742C49.2255 72.4263 48.6975 73.8945 48.5419 75.6156C48.3353 77.9128 48.7995 80.7018 49.7764 83.7366C53.3909 94.9662 64.0098 109.743 69.767 114.485C71.5704 115.971 73.4044 117.429 75.2716 118.855C74.8992 120.098 74.5395 121.286 74.0982 122.382C73.4503 123.99 72.6315 125.388 71.249 126.396C68.6982 128.258 65.6398 128.574 62.5125 128.089C57.5053 127.317 52.3272 124.507 48.5087 122.097C27.0311 108.546 16.4274 85.0292 10.7238 61.4356C4.95396 37.5749 4.19892 13.6054 2.49244 -0.532546C2.40317 -1.25964 1.77567 -1.77599 1.09206 -1.68115C0.408451 -1.58983 -0.0761965 -0.922408 0.0105304 -0.195314C1.72721 14.0199 2.50265 38.1123 8.3006 62.0959C14.1649 86.3464 25.1562 110.453 47.2333 124.384C51.2967 126.944 56.8243 129.895 62.1529 130.72C65.9204 131.3 69.591 130.829 72.6621 128.588C74.4528 127.281 75.5598 125.504 76.3965 123.428C76.7714 122.497 77.0928 121.5 77.4066 120.464ZM76.0827 116.203C77.2663 112.325 76.2996 106.758 74.2691 100.892C71.073 91.6503 65.1347 81.7134 59.7781 76.2268C57.9823 74.3898 56.2758 73.0585 54.7683 72.5071C53.6791 72.1066 52.7277 72.1558 52.0517 72.9988C51.2737 73.9683 50.9804 75.2925 50.9932 76.838C51.0059 78.6189 51.4319 80.6737 52.1436 82.8796C55.6101 93.649 65.7775 107.84 71.2975 112.385C72.8687 113.677 74.4655 114.953 76.0827 116.203Z" fill="white"/>
</svg>
