<svg width="42" height="14" viewBox="0 0 42 14" fill="none" xmlns="http://www.w3.org/2000/svg">
<path d="M17.1677 0L15.0598 13.1172H18.429L20.5356 0H17.1677ZM27.3304 5.3432C26.153 4.76178 25.4312 4.36936 25.4312 3.7747C25.4456 3.23402 26.0416 2.68009 27.3724 2.68009C28.467 2.6526 29.2716 2.90984 29.8819 3.16578L30.1877 3.30225L30.6457 0.557812C29.9802 0.300571 28.9251 0.0171296 27.6217 0.0171296C24.2946 0.0171296 21.9518 1.74699 21.9372 4.22109C21.9097 6.04683 23.6145 7.05996 24.8904 7.66772C26.1937 8.29118 26.6374 8.69539 26.6374 9.24932C26.623 10.0998 25.5835 10.4922 24.6136 10.4922C23.2696 10.4922 22.5477 10.2901 21.4518 9.8162L21.0082 9.61409L20.537 12.4662C21.3284 12.818 22.7839 13.1277 24.2947 13.1435C27.8306 13.1435 30.1314 11.4398 30.1603 8.80307C30.1718 7.35664 29.2728 6.24879 27.3304 5.3432ZM39.2832 0.040594H36.6766C35.8733 0.040594 35.263 0.271637 34.9152 1.0959L29.9106 13.1172H33.4464L34.4203 10.5145H38.3762L38.8815 13.1277H42L39.2832 0.040594ZM35.4009 7.88797C35.4691 7.89459 36.758 3.63938 36.758 3.63938L37.7844 7.88797C37.7844 7.88797 36.0664 7.88797 35.4009 7.88797ZM12.2445 0L8.94358 8.9119L8.58399 7.15439C7.97363 5.12655 6.06008 2.92294 3.92456 1.82833L6.94726 13.1041H10.5121L15.8093 0.00143873H12.2445V0Z" fill="#2394BC"/>
<path d="M7.47351 1.69181C7.21627 0.691638 6.39589 0.0170807 5.28171 0.00268555H0.05396L0.00012207 0.245388C4.07813 1.25075 7.50101 4.34426 8.61145 7.2541L7.47351 1.69181Z" fill="#EFC75E"/>
</svg>
