<svg width="24" height="25" viewBox="0 0 24 25" fill="none" xmlns="http://www.w3.org/2000/svg">
<path d="M17.7514 7.32243C17.5114 7.28243 17.2614 7.27244 17.0014 7.27244H7.00141C6.72141 7.27244 6.45141 7.29244 6.19141 7.33244C6.33141 7.05244 6.53141 6.79247 6.77141 6.55247L10.0214 3.29246C11.3914 1.93246 13.6114 1.93246 14.9814 3.29246L16.7314 5.06242C17.3714 5.69242 17.7114 6.49243 17.7514 7.32243Z" stroke="white" stroke-width="1.5" stroke-linecap="round" stroke-linejoin="round"/>
<path d="M9 19.2725C9 20.0225 8.79 20.7325 8.42 21.3325C7.73 22.4925 6.46 23.2725 5 23.2725C3.54 23.2725 2.27 22.4925 1.58 21.3325C1.21 20.7325 1 20.0225 1 19.2725C1 17.0625 2.79 15.2725 5 15.2725C7.21 15.2725 9 17.0625 9 19.2725Z" stroke="white" stroke-width="1.5" stroke-miterlimit="10" stroke-linecap="round" stroke-linejoin="round"/>
<path d="M6.49172 19.252H3.51172" stroke="white" stroke-width="1.5" stroke-miterlimit="10" stroke-linecap="round" stroke-linejoin="round"/>
<path d="M5 17.792V20.782" stroke="white" stroke-width="1.5" stroke-miterlimit="10" stroke-linecap="round" stroke-linejoin="round"/>
<path d="M22 12.2725V17.2725C22 20.2725 20 22.2725 17 22.2725H7.63C7.94 22.0125 8.21 21.6925 8.42 21.3325C8.79 20.7325 9 20.0225 9 19.2725C9 17.0625 7.21 15.2725 5 15.2725C3.8 15.2725 2.73 15.8024 2 16.6324V12.2725C2 9.55246 3.64 7.65246 6.19 7.33246C6.45 7.29246 6.72 7.27246 7 7.27246H17C17.26 7.27246 17.51 7.28245 17.75 7.32245C20.33 7.62245 22 9.53246 22 12.2725Z" stroke="white" stroke-width="1.5" stroke-linecap="round" stroke-linejoin="round"/>
<path d="M22 12.7725H19C17.9 12.7725 17 13.6725 17 14.7725C17 15.8725 17.9 16.7725 19 16.7725H22" stroke="white" stroke-width="1.5" stroke-linecap="round" stroke-linejoin="round"/>
</svg>
